<svg xmlns="http://www.w3.org/2000/svg" width="16" height="17" viewBox="0 0 16 17">
  <g fill="#333333" fill-rule="evenodd">
    <path d="M0.387104431,2.1977646 L14.5522354,16.3628956 C14.9364097,16.7470699 15.4852814,16.8210678 15.7781746,16.5281746 C16.0710678,16.2352814 15.9970699,15.6864097 15.6128956,15.3022354 L1.4477646,1.13710443 C1.0635903,0.752930128 0.514718626,0.678932188 0.221825407,0.971825407 C-0.0710678119,1.26471863 0.00293012774,1.8135903 0.387104431,2.1977646 Z"/>
    <path d="M1.4477646,16.3628956 L15.6128956,2.1977646 C15.9970699,1.8135903 16.0710678,1.26471863 15.7781746,0.971825407 C15.4852814,0.678932188 14.9364097,0.752930128 14.5522354,1.13710443 L0.387104431,15.3022354 C0.00293012774,15.6864097 -0.0710678119,16.2352814 0.221825407,16.5281746 C0.514718626,16.8210678 1.0635903,16.7470699 1.4477646,16.3628956 Z"/>
  </g>
</svg>
