<svg xmlns="http://www.w3.org/2000/svg" width="18" height="15" viewBox="0 0 18 15">
  <g fill="#333333" fill-rule="evenodd">
    <path d="M16.5,2.20710678 L9.35355339,9.35355339 C9.15829124,9.54881554 8.84170876,9.54881554 8.64644661,9.35355339 C8.45118446,9.15829124 8.45118446,8.84170876 8.64644661,8.64644661 L15.7928932,1.5 L11,1.5 C10.7238576,1.5 10.5,1.27614237 10.5,1 C10.5,0.723857625 10.7238576,0.5 11,0.5 L17.5,0.5 L17.5,7 C17.5,7.27614237 17.2761424,7.5 17,7.5 C16.7238576,7.5 16.5,7.27614237 16.5,7 L16.5,2.20710678 Z"/>
    <path d="M1.5,13.5 L1.5,1.5 L7.22222222,1.5 C7.4983646,1.5 7.72222222,1.27614237 7.72222222,1 C7.72222222,0.723857625 7.4983646,0.5 7.22222222,0.5 L0.5,0.5 L0.5,14.5 L17.5,14.5 L17.5,10.5333333 C17.5,10.257191 17.2761424,10.0333333 17,10.0333333 C16.7238576,10.0333333 16.5,10.257191 16.5,10.5333333 L16.5,13.5 L1.5,13.5 Z"/>
  </g>
</svg>
