<svg xmlns="http://www.w3.org/2000/svg" width="18" height="15" viewBox="0 0 18 15">
  <g fill="#333333" fill-rule="evenodd">
    <path d="M16.25,2.81066017 L9.53033009,9.53033009 C9.23743687,9.8232233 8.76256313,9.8232233 8.46966991,9.53033009 C8.1767767,9.23743687 8.1767767,8.76256313 8.46966991,8.46966991 L15.1893398,1.75 L11,1.75 C10.5857864,1.75 10.25,1.41421356 10.25,1 C10.25,0.585786438 10.5857864,0.25 11,0.25 L17.75,0.25 L17.75,7 C17.75,7.41421356 17.4142136,7.75 17,7.75 C16.5857864,7.75 16.25,7.41421356 16.25,7 L16.25,2.81066017 Z"/>
    <path d="M16.25,13.25 L1.75,13.25 L1.75,1.75 L7.22222222,1.75 C7.63643578,1.75 7.97222222,1.41421356 7.97222222,1 C7.97222222,0.585786438 7.63643578,0.25 7.22222222,0.25 L0.25,0.25 L0.25,14.75 L17.75,14.75 L17.75,10.5333333 C17.75,10.1191198 17.4142136,9.78333333 17,9.78333333 C16.5857864,9.78333333 16.25,10.1191198 16.25,10.5333333 L16.25,13.25 Z"/>
  </g>
</svg>
