<?xml version="1.0" standalone="no"?>
<!DOCTYPE svg PUBLIC "-//W3C//DTD SVG 20010904//EN"
 "http://www.w3.org/TR/2001/REC-SVG-20010904/DTD/svg10.dtd">
<svg version="1.0" xmlns="http://www.w3.org/2000/svg"
 width="260.000000pt" height="260.000000pt" viewBox="0 0 260.000000 260.000000"
 preserveAspectRatio="xMidYMid meet">
<metadata>
Created by potrace 1.11, written by Peter Selinger 2001-2013
</metadata>
<g transform="translate(0.000000,260.000000) scale(0.100000,-0.100000)"
fill="#000000" stroke="none">
<path d="M0 2469 l0 -130 23 7 22 6 -21 -23 c-20 -22 -22 -35 -23 -183 -1
-104 3 -164 10 -173 7 -8 7 -13 2 -13 -16 0 -16 -122 -1 -132 10 -6 10 -8 1
-8 -19 0 -19 -336 -1 -343 10 -4 10 -6 1 -6 -10 -1 -13 -54 -13 -217 0 -170 3
-214 13 -207 25 21 52 20 74 -3 17 -18 19 -25 10 -38 -11 -14 -14 -14 -32 1
-14 10 -16 17 -8 20 20 7 15 23 -8 23 -11 0 -28 -7 -36 -16 -13 -13 -14 -20
-5 -35 8 -12 8 -19 2 -19 -6 0 -10 -40 -10 -101 0 -64 4 -98 10 -94 6 3 10 2
10 -4 0 -5 -4 -12 -9 -16 -6 -3 -10 -55 -10 -116 l-1 -111 36 27 c29 22 38 25
45 14 12 -19 11 -36 -1 -44 -6 -4 -7 1 -4 12 5 16 4 16 -8 3 -7 -8 -25 -21
-40 -27 l-27 -12 0 -156 c1 -124 3 -154 13 -146 16 13 42 -30 33 -53 -8 -21
-24 -20 -23 1 1 10 -3 20 -9 23 -6 3 -11 -30 -12 -87 l-2 -93 109 0 c98 0 134
9 98 23 -10 4 -10 6 0 6 6 1 12 10 12 20 0 10 7 22 16 25 14 5 15 0 12 -34
l-4 -40 113 1 c82 1 116 5 124 15 16 19 30 18 22 -2 -4 -12 -2 -15 8 -12 8 2
15 14 17 26 4 27 22 19 22 -9 0 -16 7 -19 41 -19 23 0 47 7 55 15 20 20 40 20
24 0 -11 -13 -2 -15 74 -15 56 0 86 4 86 11 0 6 -7 8 -16 5 -14 -5 -15 -4 -4
9 19 23 43 19 37 -6 -4 -16 -3 -18 8 -9 10 8 19 8 34 1 31 -17 63 -13 88 11
25 23 44 18 23 -6 -10 -13 -1 -15 74 -14 77 1 86 3 86 19 0 11 5 19 10 19 6 0
10 -4 10 -10 0 -5 7 -10 15 -10 8 0 15 5 15 11 0 5 5 7 11 4 6 -4 8 -14 5 -22
-5 -11 3 -14 37 -11 l42 3 0 42 c0 47 7 58 31 49 12 -5 14 -9 5 -20 -6 -7 -13
-27 -15 -45 l-3 -31 65 0 c48 0 71 5 86 17 19 17 20 17 7 1 -12 -16 -3 -17
146 -16 130 0 161 3 177 17 18 15 19 15 13 -1 -7 -21 3 -24 21 -6 9 9 12 9 12
0 0 -8 17 -12 48 -12 43 0 49 3 67 33 10 17 27 40 36 50 17 18 17 18 23 -1 9
-27 -2 -50 -27 -54 -11 -2 -22 -9 -25 -16 -3 -10 19 -12 100 -11 56 1 97 4 91
6 -14 5 -18 33 -5 33 5 0 17 -9 27 -20 16 -18 31 -20 139 -20 110 0 122 2 134
20 7 11 18 20 26 20 18 0 28 -27 13 -34 -7 -2 14 -5 46 -5 l57 -1 0 101 c0 77
-3 98 -12 93 -10 -6 -10 -5 -1 7 17 21 19 1429 2 1429 -8 0 -8 4 -1 13 8 9 11
161 11 485 l1 472 -24 0 c-12 0 -31 -9 -41 -20 -20 -22 -43 -17 -24 6 9 11 8
14 -9 14 -11 0 -25 -6 -32 -14 -12 -15 -44 -10 -34 5 3 5 -15 9 -40 9 -26 0
-46 -5 -46 -11 0 -6 -7 -17 -15 -25 -12 -13 -15 -13 -15 -2 0 8 4 18 9 23 6 6
-11 11 -46 13 -39 2 -54 -1 -51 -9 2 -7 -6 -24 -19 -37 -22 -24 -25 -25 -41
-8 -16 16 -16 18 1 27 28 16 20 24 -30 27 -29 1 -50 -2 -55 -10 -6 -10 -8 -10
-8 0 0 6 -6 12 -14 12 -8 0 -16 -6 -19 -12 -3 -10 -8 -10 -21 1 -15 13 -19 13
-27 0 -6 -10 -9 -10 -9 -1 0 8 -16 12 -45 12 -38 0 -45 -3 -43 -17 2 -14 -4
-17 -30 -16 -21 0 -36 -5 -39 -14 -5 -11 -8 -12 -13 -2 -5 7 0 19 13 30 21 17
21 17 2 16 -11 -1 -24 -6 -28 -12 -6 -6 -10 -6 -14 3 -2 6 -11 12 -19 12 -8 0
-14 -6 -14 -12 0 -10 -3 -9 -9 1 -7 11 -15 11 -42 2 -18 -6 -35 -7 -38 -2 -3
4 -103 8 -221 8 -172 0 -219 -3 -237 -15 -21 -13 -23 -13 -23 2 0 13 -12 16
-72 15 -40 -1 -79 -6 -85 -11 -9 -7 -13 -7 -13 1 0 7 -20 11 -51 11 -44 0 -51
-2 -47 -18 6 -21 -29 -25 -37 -4 -2 7 0 10 5 7 6 -3 10 -1 10 4 0 14 -277 13
-302 -1 -10 -5 -18 -16 -18 -24 0 -9 -7 -14 -17 -12 -10 2 -18 12 -18 23 0 19
-8 20 -129 23 -111 3 -131 1 -148 -15 -12 -11 -22 -14 -26 -7 -4 6 -36 14 -71
18 -58 5 -67 4 -88 -16 -22 -21 -34 -13 -12 9 8 8 -1 11 -30 11 l-41 1 0 -130z
m796 94 c-3 -3 -13 -2 -23 2 -17 7 -17 8 2 15 19 7 34 -5 21 -17z m-366 -7
c11 -21 10 -27 -3 -40 -23 -23 -40 -21 -27 3 15 29 13 32 -16 20 -15 -5 -30
-7 -33 -3 -3 4 0 9 7 11 7 3 18 11 25 19 18 20 32 17 47 -10z m307 10 c-4 -10
-1 -13 9 -9 8 3 14 -1 14 -11 0 -19 -36 -22 -43 -3 -6 16 3 37 15 37 6 0 8 -7
5 -14z m433 -6 c0 -5 -2 -10 -4 -10 -3 0 -8 5 -11 10 -3 6 -1 10 4 10 6 0 11
-4 11 -10z m253 -27 c-5 -13 -43 -19 -43 -6 0 3 8 15 17 25 18 20 36 7 26 -19z
m123 10 c-10 -10 -19 5 -10 18 6 11 8 11 12 0 2 -7 1 -15 -2 -18z m-192 -7
c-10 -8 -21 -12 -23 -10 -3 2 4 11 15 18 10 8 21 12 23 10 3 -2 -4 -11 -15
-18z m384 -10 c2 -18 0 -26 -7 -22 -5 4 -8 13 -4 21 3 8 0 15 -6 15 -6 0 -11
-6 -11 -14 0 -16 -33 -27 -50 -16 -8 5 -6 10 7 15 10 5 22 7 26 6 4 0 10 6 14
14 9 24 28 12 31 -19z m302 10 c0 -8 -7 -19 -15 -26 -9 -8 -15 -9 -15 -2 0 6
5 14 11 17 6 4 8 14 5 22 -3 8 -1 11 4 8 6 -3 10 -12 10 -19z m55 14 c3 -5 2
-10 -4 -10 -5 0 -13 5 -16 10 -3 6 -2 10 4 10 5 0 13 -4 16 -10z m-885 -10 c0
-12 -28 -25 -36 -17 -9 9 6 27 22 27 8 0 14 -5 14 -10z m1144 -15 c-9 -14 -20
-25 -26 -25 -11 0 23 49 35 50 4 0 0 -11 -9 -25z m186 5 c-13 -23 -14 -24 -43
-8 -22 12 -21 12 8 19 17 4 34 7 38 8 4 0 3 -8 -3 -19z m-2256 -33 c-3 -12
-12 -29 -20 -37 -12 -12 -14 -12 -14 2 0 9 5 20 10 23 6 3 10 10 10 16 0 16
-18 10 -40 -13 -16 -18 -20 -19 -20 -5 0 9 10 25 21 36 29 26 64 12 53 -22z
m766 24 c0 -4 -7 -8 -15 -8 -16 0 -20 9 -9 20 8 8 24 -1 24 -12z m40 4 c-7 -9
-15 -13 -17 -11 -7 7 7 26 19 26 6 0 6 -6 -2 -15z m765 -4 c-3 -6 -11 -11 -17
-11 -6 0 -6 6 2 15 14 17 26 13 15 -4z m-1281 -24 c-7 -20 -54 -52 -54 -36 0
17 44 67 53 60 4 -4 5 -15 1 -24z m56 12 c0 -6 -4 -7 -10 -4 -5 3 -10 11 -10
16 0 6 5 7 10 4 6 -3 10 -11 10 -16z m870 11 c0 -13 -11 -13 -30 0 -12 8 -11
10 8 10 12 0 22 -4 22 -10z m50 -15 c-7 -8 -17 -15 -23 -15 -5 0 -2 9 8 20 21
23 35 19 15 -5z m450 21 c0 -2 -7 -7 -16 -10 -8 -3 -12 -2 -9 4 6 10 25 14 25
6z m-1915 -26 c-10 -11 -20 -18 -23 -15 -7 6 18 35 31 35 5 0 2 -9 -8 -20z
m868 6 c4 -10 1 -13 -9 -9 -15 6 -19 23 -5 23 5 0 11 -7 14 -14z m1147 4 c0
-5 -4 -10 -10 -10 -5 0 -10 5 -10 10 0 6 5 10 10 10 6 0 10 -4 10 -10z m290 1
c0 -12 -20 -25 -27 -18 -7 7 6 27 18 27 5 0 9 -4 9 -9z m-1462 -27 c7 -14 8
-23 3 -20 -4 3 -19 -3 -31 -14 -27 -23 -40 -18 -33 13 13 51 43 62 61 21z
m936 1 c-7 -16 -24 -21 -24 -6 0 8 7 13 27 20 1 1 0 -6 -3 -14z m353 -23 c-15
-15 -57 -9 -57 9 0 14 20 11 21 -3 0 -7 5 -2 10 11 8 20 12 21 25 11 13 -12
13 -15 1 -28z m363 17 c0 -6 -4 -7 -10 -4 -5 3 -10 11 -10 16 0 6 5 7 10 4 6
-3 10 -11 10 -16z m-1356 -11 c7 -12 6 -21 -3 -32 -19 -23 -32 -20 -27 8 4 20
1 23 -17 19 -22 -4 -22 -4 -2 11 22 18 34 17 49 -6z m346 -4 c0 -14 -4 -23 -9
-20 -5 4 -11 2 -13 -4 -2 -6 -8 -6 -18 0 -13 9 -11 13 10 30 31 25 30 25 30
-6z m460 14 c0 -26 -17 -40 -40 -33 -22 7 -22 7 6 26 34 22 34 22 34 7z m-565
-8 c3 -5 1 -10 -4 -10 -6 0 -11 5 -11 10 0 6 2 10 4 10 3 0 8 -4 11 -10z
m1039 -1 c-3 -6 -1 -15 6 -19 9 -5 9 -9 1 -14 -6 -4 -11 -3 -11 2 0 6 -10 8
-22 5 l-23 -5 24 21 c26 23 36 27 25 10z m-2405 -13 c9 -10 9 -20 0 -40 -13
-28 -18 -30 -34 -18 -18 13 -6 72 14 72 5 0 14 -6 20 -14z m335 -12 c8 -32
-10 -57 -24 -34 -11 17 -3 33 12 24 7 -4 8 -2 4 4 -11 18 -36 14 -37 -5 0 -12
-2 -13 -6 -5 -6 15 14 42 32 42 7 0 16 -12 19 -26z m316 5 c0 -5 -9 -9 -20 -9
-11 0 -20 6 -20 14 0 9 7 12 20 9 11 -3 20 -9 20 -14z m354 -22 c7 -6 5 -7 -5
-4 -9 3 -29 -1 -44 -9 -35 -18 -41 -18 -25 1 6 8 8 20 4 26 -5 9 -2 10 9 6 8
-3 21 1 29 10 12 15 13 14 17 -3 2 -10 8 -23 15 -27z m596 39 c0 -2 -7 -9 -15
-16 -12 -10 -15 -10 -15 4 0 9 7 16 15 16 8 0 15 -2 15 -4z m47 -2 c-3 -3 -12
-4 -19 -1 -8 3 -5 6 6 6 11 1 17 -2 13 -5z m151 -11 c-5 -25 -28 -28 -28 -4 0
12 6 21 16 21 9 0 14 -7 12 -17z m62 7 c0 -5 -5 -10 -11 -10 -5 0 -7 5 -4 10
3 6 8 10 11 10 2 0 4 -4 4 -10z m-1400 -24 c0 -7 -9 -16 -21 -19 -20 -5 -20
-5 -3 14 20 23 24 23 24 5z m815 4 c-3 -5 -11 -10 -16 -10 -6 0 -7 5 -4 10 3
6 11 10 16 10 6 0 7 -4 4 -10z m1196 -13 c-10 -9 -11 -8 -5 6 3 10 9 15 12 12
3 -3 0 -11 -7 -18z m-1261 -12 c-7 -9 -15 -13 -18 -10 -3 2 1 11 8 20 7 9 15
13 18 10 3 -2 -1 -11 -8 -20z m190 15 c0 -5 -5 -10 -11 -10 -5 0 -7 5 -4 10 3
6 8 10 11 10 2 0 4 -4 4 -10z m248 -9 c3 -10 0 -12 -13 -7 -11 4 -22 0 -29
-10 -9 -11 -20 -13 -40 -8 -20 5 -24 9 -14 15 7 5 23 9 36 9 12 0 22 5 22 11
0 15 32 7 38 -10z m342 9 c0 -5 -4 -10 -10 -10 -5 0 -10 5 -10 10 0 6 5 10 10
10 6 0 10 -4 10 -10z m220 6 c0 -3 -4 -8 -10 -11 -5 -3 -10 -1 -10 4 0 6 5 11
10 11 6 0 10 -2 10 -4z m64 -4 c2 -4 -4 -8 -14 -9 -11 -1 -22 2 -25 8 -4 5 3
9 14 9 11 0 22 -4 25 -8z m46 -13 c0 -6 -4 -7 -10 -4 -5 3 -10 11 -10 16 0 6
5 7 10 4 6 -3 10 -11 10 -16z m-1661 -15 c-10 -12 -14 -12 -21 -2 -8 10 -11
10 -15 1 -6 -17 -26 -17 -21 -1 5 13 48 28 61 21 4 -3 3 -11 -4 -19z m655 17
c8 -12 -3 -41 -15 -41 -5 0 -8 11 -7 25 2 25 12 32 22 16z m-1104 -11 c0 -5
-4 -10 -10 -10 -5 0 -10 5 -10 10 0 6 5 10 10 10 6 0 10 -4 10 -10z m1743 -3
c3 -7 -7 -26 -20 -42 -22 -27 -25 -28 -20 -8 3 13 1 26 -4 29 -5 3 -9 -3 -10
-13 -1 -13 -3 -11 -8 6 l-7 25 -22 -28 c-12 -16 -22 -25 -22 -20 1 17 39 56
49 50 5 -4 12 -3 15 2 8 13 44 12 49 -1z m-1817 -35 c-13 -13 -18 -14 -28 -4
-10 10 -8 14 10 18 12 4 22 11 23 18 0 6 3 5 6 -2 3 -8 -2 -21 -11 -30z m716
23 c0 -5 -5 -11 -11 -13 -6 -2 -11 4 -11 13 0 9 5 15 11 13 6 -2 11 -8 11 -13z
m-391 -14 c-11 -7 -11 -9 0 -13 7 -2 9 -10 5 -16 -11 -18 -26 -14 -26 6 0 20
20 45 29 36 3 -3 -1 -9 -8 -13z m1709 -2 c0 -6 -4 -7 -10 -4 -5 3 -10 11 -10
16 0 6 5 7 10 4 6 -3 10 -11 10 -16z m79 0 c-15 -22 -31 -27 -37 -10 -2 6 3
11 12 11 9 0 16 5 16 10 0 6 5 10 11 10 8 0 7 -7 -2 -21z m136 2 c-3 -6 -11
-11 -17 -11 -6 0 -6 6 2 15 14 17 26 13 15 -4z m-1865 -1 c0 -5 -2 -10 -4 -10
-3 0 -8 5 -11 10 -3 6 -1 10 4 10 6 0 11 -4 11 -10z m296 -11 c3 -6 2 -15 -4
-21 -6 -6 -11 -2 -15 11 -5 22 7 29 19 10z m128 -13 c-3 -9 -16 -16 -28 -16
-21 1 -21 1 3 21 26 22 35 20 25 -5z m501 -4 c-6 -7 -34 11 -29 19 3 5 11 3
19 -4 7 -6 12 -13 10 -15z m45 12 c0 -8 -4 -12 -10 -9 -5 3 -10 10 -10 16 0 5
5 9 10 9 6 0 10 -7 10 -16z m283 -16 c-9 -11 -19 -15 -21 -9 -2 5 -11 7 -20 4
-9 -3 -3 4 13 15 36 23 53 18 28 -10z m310 17 c33 7 36 -12 7 -46 l-21 -24 3
22 c2 12 0 21 -3 20 -3 -1 -14 4 -23 12 -15 13 -19 13 -27 0 -5 -9 -9 -10 -9
-2 0 16 33 34 40 23 3 -5 18 -7 33 -5z m-2035 -14 c3 -8 -1 -12 -9 -9 -7 2
-15 10 -17 17 -3 8 1 12 9 9 7 -2 15 -10 17 -17z m272 -21 c-13 -45 -20 -53
-35 -40 -25 20 -5 53 42 69 1 1 -2 -12 -7 -29z m47 4 c-9 -9 -28 6 -21 18 4 6
10 6 17 -1 6 -6 8 -13 4 -17z m149 -1 c-10 -10 -19 5 -10 18 6 11 8 11 12 0 2
-7 1 -15 -2 -18z m154 23 c0 -3 -4 -8 -10 -11 -5 -3 -10 -1 -10 4 0 6 5 11 10
11 6 0 10 -2 10 -4z m110 0 c0 -3 -4 -8 -10 -11 -5 -3 -10 -1 -10 4 0 6 5 11
10 11 6 0 10 -2 10 -4z m620 0 c0 -2 -7 -7 -16 -10 -8 -3 -12 -2 -9 4 6 10 25
14 25 6z m195 -6 c-3 -5 -11 -10 -16 -10 -6 0 -7 5 -4 10 3 6 11 10 16 10 6 0
7 -4 4 -10z m-1605 -26 c0 -14 -40 -36 -49 -28 -2 2 3 12 12 22 10 10 14 22
10 26 -4 4 0 4 10 0 9 -3 17 -13 17 -20z m170 17 c0 -13 -29 -35 -37 -28 -7 8
15 37 28 37 5 0 9 -4 9 -9z m2230 5 c0 -3 -4 -8 -10 -11 -5 -3 -10 -1 -10 4 0
6 5 11 10 11 6 0 10 -2 10 -4z m45 -27 c0 -24 -47 -58 -53 -39 -2 6 -11 10
-20 10 -13 0 -12 3 4 15 25 19 40 19 24 0 -11 -13 -10 -14 3 -9 8 3 18 12 21
20 3 9 1 12 -4 9 -11 -7 -14 8 -3 19 13 12 28 -1 28 -25z m-1467 -1 c-2 -31
-16 -48 -41 -48 -20 0 -20 0 1 23 12 13 22 29 22 35 0 7 4 12 9 12 6 0 9 -10
9 -22z m315 -6 c-5 -19 -63 -60 -63 -44 0 7 63 69 67 67 1 0 0 -11 -4 -23z
m-711 -4 c-7 -7 -12 -8 -12 -2 0 14 12 26 19 19 2 -3 -1 -11 -7 -17z m78 2 c0
-14 -7 -20 -22 -20 -21 0 -21 0 -2 19 24 25 24 25 24 1z m678 -5 c-3 -3 -9 2
-12 12 -6 14 -5 15 5 6 7 -7 10 -15 7 -18z m72 15 c0 -5 -8 -10 -17 -10 -15 0
-16 2 -3 10 19 12 20 12 20 0z m-470 -10 c0 -5 -2 -10 -4 -10 -3 0 -8 5 -11
10 -3 6 -1 10 4 10 6 0 11 -4 11 -10z m284 -11 c-3 -5 -10 -7 -15 -3 -5 3 -7
10 -3 15 3 5 10 7 15 3 5 -3 7 -10 3 -15z m221 2 c-3 -6 -11 -11 -17 -11 -6 0
-6 6 2 15 14 17 26 13 15 -4z m-331 -6 c-4 -8 -10 -15 -15 -15 -4 0 -6 7 -3
15 4 8 10 15 15 15 4 0 6 -7 3 -15z m-896 -25 c-2 -6 -8 -6 -18 0 -13 9 -13
11 0 20 15 10 25 0 18 -20z m1542 23 c0 -5 -12 -13 -26 -20 -26 -12 -26 -12
-9 7 18 20 35 26 35 13z m160 -30 c-11 -17 -11 -17 -6 0 3 10 6 24 7 30 0 9 2
9 5 0 3 -7 0 -20 -6 -30z m46 26 c3 -6 -1 -18 -10 -27 -15 -15 -16 -14 -16 11
0 27 13 36 26 16z m-318 -11 c-2 -6 -13 -12 -24 -13 -10 -1 -29 -5 -41 -9 -17
-5 -23 -3 -23 8 0 16 18 23 63 25 18 1 27 -3 25 -11z m448 -3 c-21 -16 -32
-13 -21 4 3 6 14 11 23 11 15 -1 15 -2 -2 -15z m173 -9 c-11 -10 -49 -16 -49
-8 0 13 44 31 49 20 1 -5 1 -11 0 -12z m-2269 5 c0 -5 -7 -12 -16 -15 -24 -9
-28 -7 -14 9 14 17 30 20 30 6z m180 -26 c0 -24 -19 -26 -41 -4 -17 17 -18 23
-8 29 16 11 49 -6 49 -25z m280 -5 c-22 -14 -30 -12 -30 8 0 28 12 34 29 17
14 -14 14 -17 1 -25z m834 15 c-5 -13 -33 -29 -40 -22 -2 2 3 13 12 25 16 23
37 21 28 -3z m486 16 c0 -5 -7 -12 -16 -15 -14 -5 -15 -4 -4 9 14 17 20 19 20
6z m-450 -11 c0 -5 -2 -10 -4 -10 -3 0 -8 5 -11 10 -3 6 -1 10 4 10 6 0 11 -4
11 -10z m-696 -16 c9 -24 7 -36 -4 -29 -6 4 -8 10 -5 15 3 4 -5 6 -17 2 -21
-5 -22 -4 -9 11 17 21 27 21 35 1z m204 1 c12 -4 22 -11 22 -16 0 -13 -43 -4
-48 9 -2 7 -15 4 -35 -9 -44 -26 -55 -24 -28 5 23 24 41 27 89 11z m607 5 c3
-5 1 -10 -4 -10 -6 0 -11 5 -11 10 0 6 2 10 4 10 3 0 8 -4 11 -10z m705 0 c0
-5 -4 -10 -10 -10 -5 0 -10 5 -10 10 0 6 5 10 10 10 6 0 10 -4 10 -10z m-1585
-10 c3 -5 -1 -10 -9 -10 -9 0 -16 5 -16 10 0 6 4 10 9 10 6 0 13 -4 16 -10z
m1045 1 c0 -5 -7 -17 -16 -25 -15 -15 -34 -21 -34 -11 0 8 34 43 43 44 4 1 7
-3 7 -8z m193 -27 c-15 -24 -43 -33 -43 -15 0 5 -10 11 -22 13 -21 3 -20 5 11
19 18 9 41 14 52 12 17 -5 17 -7 2 -29z m687 15 c0 -6 -4 -7 -10 -4 -5 3 -10
11 -10 16 0 6 5 7 10 4 6 -3 10 -11 10 -16z m-2156 -12 c-4 -7 -14 -20 -21
-29 -13 -15 -13 -16 5 -11 17 4 20 1 15 -16 -5 -21 -23 -30 -23 -11 0 6 -7 10
-15 10 -13 0 -11 7 7 39 12 22 26 37 30 35 5 -3 5 -11 2 -17z m814 6 c-2 -10
-11 -17 -19 -15 -7 2 -22 4 -31 5 -25 2 -22 15 5 20 43 8 48 7 45 -10z m327 7
c7 -11 -54 -39 -72 -33 -6 3 -9 11 -6 19 4 11 14 13 34 9 18 -4 29 -2 29 4 0
14 7 14 15 1z m771 -17 c-10 -10 -19 5 -10 18 6 11 8 11 12 0 2 -7 1 -15 -2
-18z m-2237 3 c12 -15 -3 -75 -16 -62 -11 11 -12 40 -2 52 7 8 6 14 -3 17 -8
3 -8 6 -2 6 6 1 17 -5 23 -13z m491 4 c0 -5 -7 -10 -15 -10 -8 0 -15 5 -15 10
0 6 7 10 15 10 8 0 15 -4 15 -10z m435 0 c-3 -5 -11 -10 -16 -10 -6 0 -7 5 -4
10 3 6 11 10 16 10 6 0 7 -4 4 -10z m715 0 c0 -5 -4 -10 -10 -10 -5 0 -10 5
-10 10 0 6 5 10 10 10 6 0 10 -4 10 -10z m475 1 c5 -8 -20 -41 -31 -41 -3 0 0
31 5 48 2 6 20 1 26 -7z m300 -10 c-3 -6 -11 -11 -16 -11 -5 0 -4 6 3 14 14
16 24 13 13 -3z m-1115 -51 c0 -12 -4 -19 -9 -15 -5 3 -12 1 -16 -5 -3 -5 -12
-10 -18 -10 -7 0 -4 7 6 14 18 14 25 42 7 31 -19 -12 -31 5 -19 27 l11 20 19
-21 c10 -11 19 -30 19 -41z m40 45 c0 -8 -4 -15 -9 -15 -13 0 -22 16 -14 24
11 11 23 6 23 -9z m610 -1 c0 -8 -5 -12 -10 -9 -6 4 -8 11 -5 16 9 14 15 11
15 -7z m330 12 c0 -3 -4 -8 -10 -11 -5 -3 -10 -1 -10 4 0 6 5 11 10 11 6 0 10
-2 10 -4z m-1600 -16 c0 -5 -2 -10 -4 -10 -3 0 -8 5 -11 10 -3 6 -1 10 4 10 6
0 11 -4 11 -10z m1377 -20 c-12 -18 -15 -19 -21 -5 -3 9 -2 14 3 11 5 -3 12 1
15 10 4 9 9 14 12 11 3 -3 -1 -15 -9 -27z m-1432 11 c-3 -5 -1 -12 5 -16 5 -3
10 -11 10 -16 0 -6 -7 -3 -16 5 -13 14 -12 36 2 36 3 0 3 -4 -1 -9z m287 -13
c-7 -7 -12 -8 -12 -2 0 14 12 26 19 19 2 -3 -1 -11 -7 -17z m48 9 c0 -2 -11
-14 -25 -27 -14 -13 -25 -21 -25 -17 0 3 10 15 22 27 21 19 28 24 28 17z m961
-19 c26 -29 24 -33 -21 -36 l-41 -3 16 31 c19 36 22 36 46 8z m483 -3 c-9 -14
-24 -25 -33 -25 -11 0 -7 7 14 25 38 31 39 31 19 0z m-2199 5 c3 -5 1 -10 -4
-10 -6 0 -11 5 -11 10 0 6 2 10 4 10 3 0 8 -4 11 -10z m475 -12 c0 -18 -2 -20
-9 -8 -6 8 -7 18 -5 22 9 14 14 9 14 -14z m130 7 c0 -7 8 -19 18 -25 16 -11
16 -11 -2 -6 -11 4 -24 0 -33 -11 -8 -10 -12 -13 -9 -7 3 7 -1 17 -9 24 -15
13 -10 35 6 25 5 -4 9 -1 9 4 0 6 5 11 10 11 6 0 10 -7 10 -15z m48 -10 c-3
-3 -9 2 -12 12 -6 14 -5 15 5 6 7 -7 10 -15 7 -18z m119 -2 c-10 -22 -13 -24
-15 -9 -2 10 2 22 10 27 19 12 19 12 5 -18z m661 7 c3 -8 0 -10 -7 -5 -8 4
-14 0 -17 -12 -4 -16 -44 -51 -44 -39 0 4 21 45 33 64 10 15 29 11 35 -8z
m829 14 c-3 -3 -12 -4 -19 -1 -8 3 -5 6 6 6 11 1 17 -2 13 -5z m-2319 -26 c-2
-12 -10 -24 -18 -26 -13 -5 -13 -3 0 13 14 17 14 17 -7 7 -32 -18 -38 -15 -18
8 24 27 47 26 43 -2z m1312 13 c0 -5 -7 -11 -15 -15 -15 -5 -20 5 -8 17 9 10
23 9 23 -2z m786 -2 c3 -6 1 -16 -5 -22 -9 -9 -14 -8 -21 3 -5 8 -10 18 -10
23 0 11 28 8 36 -4z m-1811 -9 c3 -5 1 -10 -4 -10 -6 0 -11 5 -11 10 0 6 2 10
4 10 3 0 8 -4 11 -10z m65 -21 c0 -5 -11 -9 -25 -9 -26 0 -35 25 -12 33 13 5
37 -10 37 -24z m77 14 c-9 -9 -19 -14 -23 -11 -10 10 6 28 24 28 15 0 15 -1
-1 -17z m943 7 c0 -5 -4 -10 -10 -10 -5 0 -10 5 -10 10 0 6 5 10 10 10 6 0 10
-4 10 -10z m-360 -19 c0 -11 -4 -22 -9 -25 -11 -7 -23 22 -15 35 9 16 24 10
24 -10z m230 5 c-6 -8 -18 -12 -26 -9 -19 7 -7 23 18 23 17 0 18 -3 8 -14z
m397 7 c-4 -3 -2 -12 4 -19 20 -25 2 -44 -41 -44 -41 0 -49 7 -28 28 14 14 42
16 33 2 -3 -5 -4 -10 0 -10 3 0 10 11 15 25 5 14 13 25 16 25 4 0 4 -3 1 -7z
m289 -45 c-26 -17 -37 -8 -19 16 15 21 19 22 24 8 4 -10 1 -20 -5 -24z m74 32
c0 -5 -4 -10 -10 -10 -5 0 -10 5 -10 10 0 6 5 10 10 10 6 0 10 -4 10 -10z
m-674 -22 c10 -13 15 -20 10 -15 -5 4 -16 1 -25 -7 -14 -13 -19 -13 -35 0 -20
14 -20 14 0 29 25 19 28 19 50 -7z m734 12 c0 -5 -5 -10 -11 -10 -5 0 -7 5 -4
10 3 6 8 10 11 10 2 0 4 -4 4 -10z m-2210 -13 c0 -8 -12 -24 -26 -38 l-25 -24
11 29 c6 16 13 33 16 37 8 14 24 11 24 -4z m600 4 c0 -12 -20 -25 -27 -18 -7
7 6 27 18 27 5 0 9 -4 9 -9z m1060 -6 c0 -9 -6 -12 -15 -9 -8 4 -12 10 -9 15
8 14 24 10 24 -6z m247 -12 c-9 -9 -20 -14 -24 -10 -3 4 2 14 13 21 25 19 33
10 11 -11z m331 2 c-6 -14 -19 -25 -30 -25 -35 0 -17 23 39 49 2 1 -3 -10 -9
-24z m182 16 c0 -12 -49 -51 -64 -51 -6 0 3 13 19 29 32 31 45 37 45 22z
m-2380 -22 c0 -6 -4 -7 -10 -4 -5 3 -10 11 -10 16 0 6 5 7 10 4 6 -3 10 -11
10 -16z m98 -8 c-7 -9 -13 -17 -14 -19 -1 -2 -1 8 0 21 0 15 6 23 14 20 10 -4
10 -9 0 -22z m182 20 c0 -20 -13 -41 -25 -41 -23 0 -28 21 -9 35 22 17 34 19
34 6z m660 -6 c0 -8 -2 -15 -4 -15 -2 0 -6 7 -10 15 -3 8 -1 15 4 15 6 0 10
-7 10 -15z m75 5 c3 -5 1 -10 -4 -10 -6 0 -11 5 -11 10 0 6 2 10 4 10 3 0 8
-4 11 -10z m-424 -20 c-13 -11 -30 -20 -38 -20 -23 0 -9 24 18 31 41 12 45 9
20 -11z m662 13 c4 -3 0 -15 -10 -25 -20 -23 -48 -24 -39 -2 3 9 6 20 6 25 0
10 33 12 43 2z m340 -15 c2 -7 -1 -22 -7 -33 -6 -11 -12 -22 -13 -24 -1 -2
-10 4 -19 13 -15 16 -15 18 2 36 23 22 31 24 37 8z m807 2 c0 -5 -4 -10 -10
-10 -5 0 -10 5 -10 10 0 6 5 10 10 10 6 0 10 -4 10 -10z m-2090 -15 c10 -13 9
-15 -8 -15 -15 0 -20 5 -16 15 4 8 7 15 9 15 1 0 8 -7 15 -15z m610 5 c0 -4
-6 -11 -12 -13 -8 -3 -6 -6 5 -6 29 -2 19 -18 -11 -19 -24 0 -28 3 -26 21 1
12 3 22 3 22 11 5 41 1 41 -5z m970 0 c0 -13 -28 -25 -38 -16 -3 4 0 11 8 16
20 13 30 12 30 0z m160 3 c0 -13 -33 -43 -48 -43 -12 0 -10 6 8 25 23 24 40
32 40 18z m-1830 -13 c0 -5 -5 -10 -11 -10 -5 0 -7 5 -4 10 3 6 8 10 11 10 2
0 4 -4 4 -10z m493 -7 c-10 -28 -24 -43 -35 -37 -5 3 1 17 13 30 27 29 30 30
22 7z m1521 -25 c-9 -14 -26 -8 -20 7 3 8 1 15 -5 15 -6 0 -7 5 -4 11 5 6 12
4 20 -8 7 -10 11 -21 9 -25z m66 32 c0 -5 -5 -10 -11 -10 -5 0 -7 5 -4 10 3 6
8 10 11 10 2 0 4 -4 4 -10z m-1690 -15 c-7 -8 -18 -15 -24 -15 -6 0 -2 7 8 15
25 19 32 19 16 0z m1485 -6 c2 -9 -3 -16 -9 -16 -6 0 -12 9 -12 19 0 22 18 19
21 -3z m90 11 c-3 -5 -11 -10 -16 -10 -6 0 -7 5 -4 10 3 6 11 10 16 10 6 0 7
-4 4 -10z m-2235 -9 c0 -6 -4 -13 -10 -16 -5 -3 -10 1 -10 9 0 9 5 16 10 16 6
0 10 -4 10 -9z m510 -38 c0 -20 -18 -16 -25 7 -5 16 -10 18 -33 9 l-27 -9 25
19 c23 18 26 18 42 4 10 -9 18 -22 18 -30z m330 32 c0 -8 -5 -15 -11 -15 -5 0
-8 -4 -5 -9 8 -13 -4 -42 -15 -35 -13 8 -11 43 4 59 16 19 27 19 27 0z m290 5
c13 -8 13 -10 -2 -10 -9 0 -20 5 -23 10 -8 13 5 13 25 0z m615 -9 c-3 -6 -11
-11 -17 -11 -6 0 -6 6 2 15 14 17 26 13 15 -4z m219 4 c-4 -8 -10 -15 -15 -15
-4 0 -6 7 -3 15 4 8 10 15 15 15 4 0 6 -7 3 -15z m-1800 -11 c20 -20 20 -28 0
-20 -8 3 -26 -1 -40 -10 -23 -16 -24 -16 -18 2 16 45 33 53 58 28z m1134 4
c-6 -17 -36 -34 -45 -24 -4 4 1 14 11 22 24 17 39 18 34 2z m-248 -8 c0 -5 -4
-10 -10 -10 -5 0 -10 5 -10 10 0 6 5 10 10 10 6 0 10 -4 10 -10z m430 -3 c0
-12 -26 -37 -39 -37 -6 0 -11 10 -11 23 0 18 6 23 25 23 14 0 25 -4 25 -9z
m80 3 c0 -5 -4 -10 -10 -10 -5 0 -10 5 -10 10 0 6 5 10 10 10 6 0 10 -4 10
-10z m-1513 -14 c0 -8 -6 -12 -15 -9 -11 5 -11 7 0 14 7 5 13 9 14 9 0 0 1 -6
1 -14z m-107 0 c0 -3 -4 -8 -10 -11 -5 -3 -10 -1 -10 4 0 6 5 11 10 11 6 0 10
-2 10 -4z m540 0 c0 -3 -4 -8 -10 -11 -5 -3 -10 -1 -10 4 0 6 5 11 10 11 6 0
10 -2 10 -4z m1330 0 c0 -2 3 -11 6 -19 4 -11 -2 -16 -23 -19 -20 -2 -29 -9
-31 -26 -2 -12 -13 -27 -25 -33 -21 -11 -21 -11 -6 7 20 23 21 54 2 47 -16 -6
-18 23 -2 33 6 3 15 0 20 -7 8 -12 11 -11 20 4 9 15 39 25 39 13z m451 -23
c-8 -15 -10 -15 -11 -2 0 17 10 32 18 25 2 -3 -1 -13 -7 -23z m139 17 c0 -5
-5 -10 -11 -10 -5 0 -7 5 -4 10 3 6 8 10 11 10 2 0 4 -4 4 -10z m35 0 c-3 -5
-10 -10 -16 -10 -5 0 -9 5 -9 10 0 6 7 10 16 10 8 0 12 -4 9 -10z m-1305 -10
c0 -5 -4 -10 -10 -10 -5 0 -10 5 -10 10 0 6 5 10 10 10 6 0 10 -4 10 -10z
m282 -12 c-7 -7 -12 -8 -12 -2 0 6 3 14 7 17 3 4 9 5 12 2 2 -3 -1 -11 -7 -17z
m-1407 -18 c-5 -16 -10 -19 -18 -11 -7 7 -6 15 3 26 17 20 24 13 15 -15z m331
15 c-25 -19 -41 -19 -24 0 7 8 20 14 28 14 11 0 10 -3 -4 -14z m313 -17 c-8
-14 -14 -18 -17 -10 -4 13 17 46 25 38 3 -2 -1 -15 -8 -28z m316 18 c12 -12
11 -16 -4 -30 -21 -19 -52 -23 -33 -4 7 7 12 20 12 30 0 22 7 23 25 4z m933
-12 c-9 -9 -21 -13 -28 -9 -8 5 -4 11 12 19 29 16 37 10 16 -10z m166 2 c-7
-18 -25 -17 -31 1 -2 6 4 13 14 15 23 5 25 4 17 -16z m-1919 -5 c-3 -6 -14
-11 -23 -11 -13 0 -13 2 4 14 21 15 30 14 19 -3z m1811 -28 c-14 -14 -23 4
-13 27 l10 25 5 -23 c2 -13 1 -26 -2 -29z m-1226 33 c0 -3 -4 -8 -10 -11 -5
-3 -10 -1 -10 4 0 6 5 11 10 11 6 0 10 -2 10 -4z m1690 -6 c0 -5 -5 -10 -11
-10 -5 0 -7 5 -4 10 3 6 8 10 11 10 2 0 4 -4 4 -10z m-1970 -15 c-7 -8 -18
-15 -24 -15 -6 0 -2 7 8 15 25 19 32 19 16 0z m66 -12 c-10 -10 -19 5 -10 18
6 11 8 11 12 0 2 -7 1 -15 -2 -18z m614 24 c0 -2 -9 -14 -19 -26 -21 -24 -41
-10 -21 14 11 13 40 21 40 12z m240 -7 c0 -5 -5 -10 -11 -10 -5 0 -7 5 -4 10
3 6 8 10 11 10 2 0 4 -4 4 -10z m290 -11 c0 -5 -7 -9 -15 -9 -9 0 -12 6 -9 15
6 15 24 11 24 -6z m-52 -9 c-14 -22 -38 -35 -38 -20 0 5 -8 6 -17 3 -16 -6
-16 -5 -4 11 8 9 20 15 28 12 7 -3 13 -1 13 4 0 6 7 10 15 10 13 0 13 -3 3
-20z m-1442 -8 c17 -26 12 -66 -8 -70 -11 -2 -18 3 -18 12 0 9 4 16 8 16 4 0
8 8 9 18 1 15 -4 18 -25 14 -26 -4 -26 -4 -7 12 26 20 28 20 41 -2z m1154 8
c0 -5 -2 -10 -4 -10 -3 0 -8 5 -11 10 -3 6 -1 10 4 10 6 0 11 -4 11 -10z m759
-11 c-16 -10 -23 -4 -14 10 3 6 11 8 17 5 6 -4 5 -9 -3 -15z m-1759 2 c0 -5
-7 -14 -15 -21 -16 -14 -18 -10 -9 14 6 17 24 22 24 7z m252 -13 c-7 -7 -12
-8 -12 -2 0 14 12 26 19 19 2 -3 -1 -11 -7 -17z m70 0 c-7 -7 -12 -8 -12 -2 0
14 12 26 19 19 2 -3 -1 -11 -7 -17z m648 3 c0 -11 -4 -22 -9 -25 -5 -3 -8 6
-8 19 0 14 3 25 8 25 5 0 9 -9 9 -19z m961 9 c6 0 7 -5 4 -10 -4 -6 -10 -8
-15 -5 -4 3 -10 -1 -13 -7 -3 -10 -7 -10 -17 -1 -16 14 -3 36 17 29 8 -3 19
-6 24 -6z m146 -17 c-9 -9 -20 -13 -24 -9 -4 4 1 14 11 22 25 18 35 8 13 -13z
m-2367 13 c0 -3 -4 -8 -10 -11 -5 -3 -10 -1 -10 4 0 6 5 11 10 11 6 0 10 -2
10 -4z m463 -9 c3 -8 1 -20 -3 -28 -7 -11 -10 -10 -16 4 -3 9 -14 17 -23 17
-14 0 -14 2 -1 10 21 14 37 12 43 -3z m327 3 c0 -5 -4 -10 -10 -10 -5 0 -10 5
-10 10 0 6 5 10 10 10 6 0 10 -4 10 -10z m190 0 c0 -5 -4 -10 -10 -10 -5 0
-10 5 -10 10 0 6 5 10 10 10 6 0 10 -4 10 -10z m907 -5 c0 -8 -4 -15 -8 -15
-4 0 -16 -3 -26 -6 -14 -4 -13 -1 6 15 28 25 28 25 28 6z m213 5 c0 -5 -4 -10
-10 -10 -5 0 -10 5 -10 10 0 6 5 10 10 10 6 0 10 -4 10 -10z m176 -2 c5 -7 3
-8 -5 -4 -7 5 -18 0 -26 -10 -15 -20 -19 -16 -9 10 7 19 30 21 40 4z m-1166
-19 c11 -19 10 -20 -9 -9 -22 11 -29 30 -11 30 5 0 14 -9 20 -21z m230 -11 c0
-5 -7 -8 -15 -8 -8 0 -15 -6 -16 -12 0 -10 -2 -10 -5 -1 -3 7 0 22 6 34 10 17
14 19 21 8 5 -8 9 -17 9 -21z m85 22 c3 -6 -1 -7 -9 -4 -18 7 -21 14 -7 14 6
0 13 -4 16 -10z m492 -15 c-4 -8 -11 -15 -17 -15 -6 0 -6 7 2 20 14 22 24 19
15 -5z m526 -22 c-9 -22 -25 -14 -18 9 6 17 4 20 -10 14 -15 -5 -16 -4 -5 9
11 14 14 13 25 -2 7 -9 11 -23 8 -30z m-1666 21 c7 -18 -7 -46 -25 -52 -7 -2
-10 2 -6 12 3 9 1 16 -6 16 -6 0 -8 5 -5 10 3 6 -2 10 -12 10 -15 0 -16 2 -3
10 23 15 50 12 57 -6z m1298 6 c3 -5 -8 -16 -25 -25 -19 -10 -30 -12 -30 -4 0
6 9 13 20 16 11 3 20 9 20 14 0 12 7 11 15 -1z m-1000 -45 c-2 -26 1 -45 7
-45 11 0 47 -40 48 -53 0 -5 -6 -7 -12 -4 -7 2 -21 0 -30 -5 -15 -7 -16 -12
-6 -28 10 -16 10 -23 -5 -37 -17 -17 -18 -17 -11 0 3 9 2 17 -3 17 -5 0 -9 9
-9 20 0 11 4 20 8 20 4 0 8 5 8 10 0 6 -7 10 -17 10 -14 0 -14 2 3 21 14 16
16 23 6 26 -9 4 -10 8 -2 18 12 14 10 36 -4 46 -10 8 1 29 14 29 5 0 7 -20 5
-45z m495 37 c0 -5 -9 -17 -20 -27 -22 -20 -26 -14 -10 16 11 19 30 26 30 11z
m-1269 -23 c16 -13 20 -22 12 -25 -7 -3 -10 -11 -8 -17 3 -7 -7 -20 -20 -30
-24 -17 -25 -17 -25 2 0 11 -3 27 -7 37 -5 13 -3 16 10 11 20 -7 23 13 5 31
-21 21 8 14 33 -9z m365 -6 c-3 -3 -13 -2 -23 2 -17 7 -17 8 2 15 19 7 34 -5
21 -17z m479 17 c3 -5 1 -10 -4 -10 -6 0 -11 5 -11 10 0 6 2 10 4 10 3 0 8 -4
11 -10z m305 1 c0 -5 -7 -11 -15 -15 -8 -3 -15 -12 -15 -21 0 -8 -4 -15 -10
-15 -5 0 -10 7 -10 15 0 8 -7 15 -16 15 -12 0 -14 3 -6 13 13 15 72 22 72 8z
m275 -1 c-3 -5 1 -10 9 -10 8 0 18 -5 22 -12 5 -8 2 -9 -9 -5 -9 3 -19 2 -22
-3 -9 -14 -25 -12 -25 3 0 7 5 18 12 25 15 15 21 16 13 2z m-1751 -25 c-5 -13
-34 -30 -34 -20 0 3 5 14 12 24 13 22 30 19 22 -4z m458 -7 c-6 -6 -15 -8 -19
-4 -4 4 -1 11 7 16 19 12 27 3 12 -12z m153 12 c-3 -5 -2 -10 4 -10 5 0 11 6
14 13 3 9 9 8 21 -3 15 -15 14 -18 -14 -45 -22 -21 -30 -25 -30 -13 0 9 6 19
13 22 6 3 0 4 -15 1 -32 -6 -35 1 -11 27 17 19 28 24 18 8z m683 -2 c24 -24
14 -57 -20 -72 -18 -7 -36 -11 -40 -9 -11 6 -10 41 2 48 5 3 7 0 4 -8 -9 -26
14 -28 36 -5 18 19 19 24 6 26 -9 2 -16 10 -16 18 0 17 12 18 28 2z m932 3 c0
-5 -9 -11 -21 -14 -16 -4 -18 -3 -8 9 13 16 29 19 29 5z m-1254 -30 c-4 -6
-14 -11 -22 -11 -12 0 -13 4 -3 21 7 14 14 18 21 11 6 -6 7 -15 4 -21z m1139
20 c3 -5 -8 -16 -24 -24 -27 -13 -29 -13 -23 2 10 27 36 39 47 22z m142 -31
c-12 -32 -15 -34 -36 -21 -18 12 3 51 28 51 17 0 18 -3 8 -30z m-1102 10 c3
-5 -1 -10 -10 -10 -9 0 -13 5 -10 10 3 6 8 10 10 10 2 0 7 -4 10 -10z m455 -5
c0 -8 -7 -15 -15 -15 -16 0 -20 12 -8 23 11 12 23 8 23 -8z m331 5 c8 12 9 10
4 -7 -5 -19 -3 -22 12 -16 10 3 14 2 10 -3 -13 -14 -77 -15 -77 0 0 21 23 38
32 23 6 -9 10 -9 19 3z m-1777 -38 c-4 -9 -6 -25 -5 -34 1 -10 -3 -18 -8 -18
-6 0 -11 9 -11 21 0 15 -5 19 -15 15 -24 -9 -17 11 12 34 29 22 41 14 27 -18z
m326 13 c0 -7 6 -15 13 -18 6 -2 10 -7 7 -10 -9 -9 -52 32 -45 43 8 13 25 3
25 -15z m1161 8 c12 -15 12 -16 -3 -10 -9 3 -19 1 -22 -6 -2 -7 -5 -2 -5 11
-1 26 11 29 30 5z m-1681 -19 c0 -8 -5 -12 -10 -9 -6 4 -8 11 -5 16 9 14 15
11 15 -7z m844 8 c3 -5 -10 -14 -29 -20 -37 -11 -47 0 -17 17 21 13 39 14 46
3z m146 -7 c0 -8 -7 -15 -15 -15 -16 0 -20 12 -8 23 11 12 23 8 23 -8z m503
-27 c-12 -13 -19 -15 -21 -8 -3 7 1 16 8 20 8 5 9 13 4 21 -6 11 -5 11 9 0 17
-13 17 -15 0 -33z m81 27 c-4 -8 -8 -15 -10 -15 -2 0 -4 7 -4 15 0 8 4 15 10
15 5 0 7 -7 4 -15z m596 -7 c0 -5 -7 -8 -15 -4 -11 4 -15 -3 -16 -27 -1 -18
-3 -24 -6 -14 -2 9 -9 17 -15 17 -7 0 -1 11 12 25 22 24 40 25 40 3z m-2115 2
c-3 -5 -10 -10 -16 -10 -5 0 -9 5 -9 10 0 6 7 10 16 10 8 0 12 -4 9 -10z
m1365 0 c0 -5 -5 -10 -11 -10 -5 0 -7 5 -4 10 3 6 8 10 11 10 2 0 4 -4 4 -10z
m-920 -10 c0 -5 -6 -10 -13 -10 -8 0 -24 -9 -37 -20 -13 -11 -28 -20 -34 -20
-13 0 31 37 59 50 26 11 25 11 25 0z m1330 -15 c0 -18 -5 -25 -19 -25 -22 0
-22 27 0 41 19 12 19 12 19 -16z m-1797 -61 c-18 -28 -29 -30 -51 -8 -15 15
-14 17 3 30 10 7 22 11 27 7 6 -3 4 5 -2 18 l-13 24 26 -24 c24 -22 25 -25 10
-47z m2207 62 c0 -3 -4 -8 -10 -11 -5 -3 -10 -1 -10 4 0 6 5 11 10 11 6 0 10
-2 10 -4z m40 -4 c0 -5 -9 -17 -20 -27 -22 -20 -26 -14 -10 16 11 19 30 26 30
11z m170 -2 c0 -5 -7 -10 -16 -10 -8 0 -12 5 -9 10 3 6 10 10 16 10 5 0 9 -4
9 -10z m-1774 -34 c1 -15 -3 -29 -9 -33 -6 -3 -8 -2 -5 3 3 5 0 15 -8 22 -8 7
-14 9 -14 4 0 -5 -7 -9 -15 -9 -12 0 -10 6 7 24 27 29 43 25 44 -11z m164 25
c0 -12 -20 -25 -27 -18 -7 7 6 27 18 27 5 0 9 -4 9 -9z m168 -3 c0 -7 2 -21 4
-31 2 -11 -7 -26 -19 -34 -21 -14 -22 -14 -17 13 3 15 8 32 11 37 3 5 -5 4
-17 -3 -17 -9 -21 -9 -15 0 4 6 17 15 29 20 11 5 21 9 22 9 0 1 1 -5 2 -11z
m329 -9 c-14 -22 -23 -24 -31 -6 -5 10 -7 10 -12 0 -3 -7 -10 -13 -15 -13 -24
0 16 35 41 36 25 1 27 -1 17 -17z m763 13 c0 -5 -6 -16 -13 -27 -10 -13 -16
-15 -21 -6 -4 6 -2 18 4 26 13 16 30 20 30 7z m-1744 -34 c4 -12 0 -26 -10
-36 -9 -9 -16 -12 -17 -7 -4 59 -3 72 8 68 7 -3 15 -14 19 -25z m127 12 c-9
-11 -19 -17 -21 -15 -6 6 18 35 29 35 5 0 1 -9 -8 -20z m690 -1 c4 -16 3 -18
-9 -8 -7 6 -11 15 -8 20 8 13 11 11 17 -12z m997 11 c0 -5 -2 -10 -4 -10 -3 0
-8 5 -11 10 -3 6 -1 10 4 10 6 0 11 -4 11 -10z m300 -5 c0 -8 -4 -15 -10 -15
-5 0 -7 7 -4 15 4 8 8 15 10 15 2 0 4 -7 4 -15z m-991 -4 c11 -7 9 -11 -8 -20
-18 -10 -21 -9 -21 9 0 22 7 25 29 11z m174 -5 c8 -20 1 -24 -30 -18 -25 5
-25 6 -8 18 24 18 32 18 38 0z m87 5 c0 -5 -7 -11 -15 -15 -9 -3 -15 0 -15 9
0 8 7 15 15 15 8 0 15 -4 15 -9z m-350 -21 c0 -5 -5 -10 -11 -10 -5 0 -7 5 -4
10 3 6 8 10 11 10 2 0 4 -4 4 -10z m510 2 c0 -13 -12 -22 -22 -16 -10 6 -1 24
13 24 5 0 9 -4 9 -8z m78 -26 c3 -14 -2 -17 -25 -15 -15 2 -34 0 -41 -4 -17
-11 -15 1 4 20 13 13 17 14 24 3 4 -7 13 -9 20 -5 9 6 9 10 -1 17 -11 8 -11 9
1 5 8 -2 17 -12 18 -21z m327 15 c3 -5 1 -12 -5 -16 -5 -3 -10 1 -10 9 0 18 6
21 15 7z m-1785 -9 c0 -4 -5 -13 -12 -20 -9 -9 -9 -12 0 -12 7 0 12 -7 12 -15
0 -8 -4 -15 -9 -15 -5 0 -16 -2 -24 -5 -19 -8 -17 34 3 56 16 19 30 24 30 11z
m1007 -18 c-9 -9 -28 6 -21 18 4 6 10 6 17 -1 6 -6 8 -13 4 -17z m-1297 -16
c0 -12 -14 -10 -28 4 -19 19 -14 29 8 16 11 -7 20 -16 20 -20z m595 10 c-5
-20 -5 -21 5 -5 6 9 15 15 21 12 15 -10 10 -22 -15 -38 -23 -15 -24 -15 -24
11 0 27 5 42 14 42 3 0 3 -10 -1 -22z m345 12 c0 -5 -5 -10 -11 -10 -5 0 -7 5
-4 10 3 6 8 10 11 10 2 0 4 -4 4 -10z m298 -16 c-2 -25 -22 -43 -34 -31 -5 5
24 57 32 57 2 0 3 -12 2 -26z m142 17 c0 -5 -7 -12 -16 -15 -14 -5 -15 -4 -4
9 14 17 20 19 20 6z m140 2 c-1 -15 -30 -46 -37 -40 -3 4 2 16 12 27 19 21 25
24 25 13z m60 -2 c0 -17 -42 -81 -50 -76 -9 6 -1 56 13 73 11 14 37 16 37 3z
m330 0 c0 -12 -20 -25 -27 -18 -7 7 6 27 18 27 5 0 9 -4 9 -9z m122 -13 c-6
-6 -15 -8 -19 -4 -4 4 -1 11 7 16 19 12 27 3 12 -12z m-1472 -3 c-7 -9 -15
-13 -17 -11 -7 7 7 26 19 26 6 0 6 -6 -2 -15z m524 1 c-6 -17 -34 -30 -34 -16
0 5 8 14 18 19 22 13 22 13 16 -3z m46 4 c0 -5 -2 -10 -4 -10 -3 0 -8 5 -11
10 -3 6 -1 10 4 10 6 0 11 -4 11 -10z m-1310 -10 c0 -5 -4 -10 -10 -10 -5 0
-10 5 -10 10 0 6 5 10 10 10 6 0 10 -4 10 -10z m40 0 c0 -5 -4 -10 -10 -10 -5
0 -10 5 -10 10 0 6 5 10 10 10 6 0 10 -4 10 -10z m80 6 c0 -3 -4 -8 -10 -11
-5 -3 -10 -1 -10 4 0 6 5 11 10 11 6 0 10 -2 10 -4z m2285 -6 c-3 -5 -13 -10
-21 -10 -8 0 -14 5 -14 10 0 6 9 10 21 10 11 0 17 -4 14 -10z m-2099 -38 c-4
-3 -11 0 -16 8 -15 24 -11 33 6 15 9 -9 13 -19 10 -23z m99 28 c3 -5 -1 -10
-10 -10 -9 0 -13 5 -10 10 3 6 8 10 10 10 2 0 7 -4 10 -10z m775 0 c0 -5 -5
-10 -11 -10 -5 0 -7 5 -4 10 3 6 8 10 11 10 2 0 4 -4 4 -10z m410 0 c0 -5 -7
-10 -15 -10 -8 0 -15 5 -15 10 0 6 7 10 15 10 8 0 15 -4 15 -10z m-1621 -14
c9 -11 9 -16 0 -21 -10 -7 -28 10 -29 28 0 12 17 8 29 -7z m1021 -2 c0 -8 -5
-12 -10 -9 -6 4 -8 11 -5 16 9 14 15 11 15 -7z m799 2 c8 -10 9 -16 1 -21 -5
-3 -10 -1 -10 6 0 8 -4 8 -15 -1 -16 -14 -18 -10 -9 14 8 20 18 20 33 2z m321
-5 c0 -3 -12 -19 -26 -34 -36 -39 -55 -21 -24 21 19 26 50 34 50 13z m96 -3
c-10 -6 -20 -7 -24 -3 -9 8 20 25 31 18 5 -3 2 -10 -7 -15z m216 -23 c-6 -13
-9 -33 -5 -42 5 -14 3 -15 -7 -6 -7 6 -19 9 -28 5 -11 -4 -14 -1 -9 12 4 10 1
19 -8 22 -16 6 -11 24 6 24 6 0 7 -4 4 -10 -3 -5 -1 -10 4 -10 6 0 11 6 11 13
0 20 22 39 34 27 6 -6 5 -18 -2 -35z m-2367 25 c3 -5 1 -10 -4 -10 -6 0 -11 5
-11 10 0 6 2 10 4 10 3 0 8 -4 11 -10z m550 0 c-27 -12 -43 -12 -25 0 8 5 22
9 30 9 10 0 8 -3 -5 -9z m496 -23 c-16 -16 -26 0 -10 19 9 11 15 12 17 4 2 -6
-1 -17 -7 -23z m838 -3 c15 -34 13 -45 -3 -15 -10 19 -14 20 -19 8 -4 -10 -13
-14 -28 -10 l-23 6 23 9 c14 5 21 14 18 23 -10 25 19 6 32 -21z m-1829 6 c-8
-5 -17 -7 -19 -4 -3 3 1 9 9 14 8 5 17 7 19 4 3 -3 -1 -9 -9 -14z m850 -7 c0
-9 -7 -24 -16 -34 -14 -15 -18 -16 -30 -4 -7 7 -19 15 -26 17 -10 4 -10 8 0
21 8 9 19 14 27 11 7 -3 16 0 20 5 9 15 25 4 25 -16z m185 17 c3 -5 1 -10 -4
-10 -6 0 -11 5 -11 10 0 6 2 10 4 10 3 0 8 -4 11 -10z m-489 -15 c10 -8 14
-15 7 -15 -6 0 -18 -3 -27 -6 -11 -4 -14 0 -13 15 2 25 7 26 33 6z m629 -2
c10 -14 8 -20 -13 -40 -14 -13 -29 -23 -33 -23 -15 0 -10 18 6 24 9 3 15 11
14 18 -5 39 6 48 26 21z m1008 11 c11 -11 -3 -24 -18 -18 -8 4 -12 10 -9 15 6
11 18 12 27 3z m-1933 -14 c0 -5 -5 -10 -11 -10 -5 0 -7 5 -4 10 3 6 8 10 11
10 2 0 4 -4 4 -10z m235 -10 c-10 -11 -23 -20 -28 -20 -6 0 -2 9 8 20 10 11
23 20 28 20 6 0 2 -9 -8 -20z m815 10 c0 -5 -4 -10 -10 -10 -5 0 -10 5 -10 10
0 6 5 10 10 10 6 0 10 -4 10 -10z m250 0 c0 -5 -5 -10 -11 -10 -5 0 -7 5 -4
10 3 6 8 10 11 10 2 0 4 -4 4 -10z m-675 -10 c3 -5 1 -10 -4 -10 -6 0 -11 5
-11 10 0 6 2 10 4 10 3 0 8 -4 11 -10z m475 6 c0 -3 -4 -8 -10 -11 -5 -3 -10
-1 -10 4 0 6 5 11 10 11 6 0 10 -2 10 -4z m150 -1 c0 -4 -7 -19 -15 -35 -16
-31 -52 -43 -41 -14 3 9 6 24 6 35 0 14 7 19 25 19 14 0 25 -2 25 -5z m-1319
-24 c-6 -10 -25 -24 -42 -30 -27 -9 -30 -9 -19 4 7 8 18 15 25 15 7 0 15 7 19
15 3 8 10 15 16 15 7 0 8 -6 1 -19z m206 -7 c-7 -7 -37 7 -37 17 0 6 9 5 21
-1 11 -7 19 -14 16 -16z m713 16 c0 -5 -2 -10 -4 -10 -3 0 -8 5 -11 10 -3 6
-1 10 4 10 6 0 11 -4 11 -10z m1050 -21 c0 -12 -7 -19 -20 -19 -11 0 -20 5
-20 12 0 9 -3 9 -11 1 -13 -13 -39 -6 -39 9 0 5 3 7 8 5 4 -3 21 1 37 8 35 14
45 11 45 -16z m-550 6 c-10 -12 -9 -16 4 -21 22 -9 20 -17 -9 -31 -14 -6 -25
-7 -25 -2 0 5 5 9 10 9 6 0 10 7 10 15 0 8 -4 15 -10 15 -17 0 -11 18 8 23 9
3 19 5 21 6 2 0 -2 -6 -9 -14z m379 -8 c-9 -7 -14 -16 -13 -22 2 -5 -5 -21
-16 -35 -14 -19 -22 -22 -30 -14 -8 8 -9 14 -1 18 6 4 11 16 11 27 0 10 6 19
14 19 7 0 19 7 26 15 7 9 16 13 19 9 3 -3 -1 -11 -10 -17z m-2104 3 c3 -5 1
-10 -4 -10 -6 0 -11 5 -11 10 0 6 2 10 4 10 3 0 8 -4 11 -10z m145 -5 c14 -17
4 -55 -16 -55 -8 0 -14 5 -14 11 0 5 -5 7 -12 3 -7 -4 -8 -3 -4 4 4 7 14 12
22 12 17 0 19 26 2 33 -8 4 -9 6 -2 6 6 1 17 -6 24 -14z m980 7 c0 -5 -11 -14
-25 -20 -20 -9 -25 -9 -25 2 0 14 14 24 38 25 6 1 12 -3 12 -7z m314 -37 c-4
-9 -13 -14 -20 -11 -8 3 -14 1 -14 -5 0 -6 -4 -8 -10 -4 -12 7 -1 36 19 52 19
14 35 -6 25 -32z m341 35 c3 -5 2 -10 -4 -10 -5 0 -13 5 -16 10 -3 6 -2 10 4
10 5 0 13 -4 16 -10z m145 6 c0 -3 -4 -8 -10 -11 -5 -3 -10 -1 -10 4 0 6 5 11
10 11 6 0 10 -2 10 -4z m-1320 -21 c0 -8 -7 -15 -15 -15 -9 0 -12 6 -9 15 4 8
10 15 15 15 5 0 9 -7 9 -15z m175 5 c9 -15 -14 -40 -36 -40 -24 0 -24 19 -1
36 21 16 29 17 37 4z m780 0 c-3 -5 -11 -10 -16 -10 -6 0 -7 5 -4 10 3 6 11
10 16 10 6 0 7 -4 4 -10z m-1515 -21 c0 -5 -4 -9 -10 -9 -5 0 -10 7 -10 16 0
8 5 12 10 9 6 -3 10 -10 10 -16z m420 11 c8 -5 11 -13 6 -17 -5 -4 -11 -2 -13
5 -3 6 -9 10 -14 6 -5 -3 -9 0 -9 5 0 13 10 14 30 1z m367 -5 c2 -6 -6 -11
-17 -11 -11 0 -20 6 -20 14 0 15 32 13 37 -3z m1588 -3 c-5 -4 -15 -16 -21
-26 -16 -30 -29 -29 -32 0 -1 19 2 25 13 20 8 -3 17 -1 20 4 4 6 12 10 18 10
8 0 8 -3 2 -8z m73 -31 c1 -17 -2 -31 -7 -31 -5 0 -9 16 -9 35 0 42 13 39 16
-4z m-2489 12 l24 -16 -27 -14 c-14 -7 -26 -18 -26 -23 0 -6 -7 -10 -15 -10
-17 0 -20 26 -5 35 6 4 8 15 5 26 -8 24 12 25 44 2z m315 2 c3 -8 1 -15 -3
-15 -5 0 -11 7 -15 15 -3 8 -1 15 3 15 5 0 11 -7 15 -15z m351 -15 c4 -19 1
-21 -22 -15 -17 4 -29 2 -34 -7 -7 -10 -9 -10 -9 0 0 6 -8 12 -17 12 -16 1
-16 2 1 15 13 10 23 11 31 5 9 -7 16 -5 25 5 15 18 19 16 25 -15z m465 15 c0
-8 -4 -15 -10 -15 -5 0 -10 7 -10 15 0 8 5 15 10 15 6 0 10 -7 10 -15z m144 1
c-7 -18 -58 -42 -52 -24 3 7 15 19 29 25 30 16 29 16 23 -1z m1166 -5 c0 -6
-4 -13 -10 -16 -5 -3 -10 1 -10 9 0 9 5 16 10 16 6 0 10 -4 10 -9z m-2150 -5
c0 -2 -7 -6 -15 -10 -8 -3 -15 -1 -15 4 0 6 7 10 15 10 8 0 15 -2 15 -4z m790
-5 c0 -10 -24 -21 -43 -21 -7 0 -3 7 7 15 22 17 36 19 36 6z m535 0 c6 8 10 7
16 -2 5 -8 9 -17 9 -21 0 -11 -39 4 -52 21 -11 14 -11 14 4 3 12 -10 18 -10
23 -1z m150 -14 c0 -16 -6 -22 -22 -23 -27 -2 -28 3 -6 28 21 24 28 23 28 -5z
m365 13 c0 -5 -2 -10 -4 -10 -3 0 -8 5 -11 10 -3 6 -1 10 4 10 6 0 11 -4 11
-10z m-692 -12 c-2 -6 -10 -14 -16 -16 -7 -2 -10 2 -6 12 7 18 28 22 22 4z
m-668 -2 c0 -3 -4 -8 -10 -11 -5 -3 -10 -1 -10 4 0 6 5 11 10 11 6 0 10 -2 10
-4z m210 -3 c0 -14 -19 -38 -25 -32 -8 8 5 39 16 39 5 0 9 -3 9 -7z m306 -9
c-4 -12 -2 -15 9 -10 8 3 15 2 15 -3 0 -5 -11 -11 -25 -13 -18 -4 -25 -1 -25
10 0 13 -3 13 -12 4 -15 -15 -32 -16 -23 -1 7 10 41 27 59 28 4 1 5 -6 2 -15z
m612 -1 c-14 -17 -28 -16 -28 1 0 8 9 14 19 13 15 -1 17 -4 9 -14z m-1752 -22
c-12 -19 -24 -12 -19 10 4 13 9 17 15 11 6 -6 7 -15 4 -21z m318 -18 c-19 -14
-39 -22 -42 -18 -4 4 -1 10 6 12 6 3 12 11 12 18 0 21 32 36 48 23 10 -8 4
-16 -24 -35z m696 25 c0 -16 -3 -19 -11 -11 -6 6 -8 16 -5 22 11 17 16 13 16
-11z m429 3 c8 -14 6 -23 -9 -36 -11 -10 -20 -13 -20 -7 0 6 8 16 18 21 16 10
16 10 0 11 -9 0 -20 -4 -23 -10 -9 -15 -22 -12 -29 5 -4 10 2 19 17 25 32 13
35 12 46 -9z m670 -23 c-12 -22 -23 -24 -15 -3 3 9 0 15 -9 15 -21 0 -19 18 3
22 23 5 33 -11 21 -34z m-1973 5 c-10 -10 -19 5 -10 18 6 11 8 11 12 0 2 -7 1
-15 -2 -18z m654 23 c0 -2 -7 -6 -15 -10 -8 -3 -15 -1 -15 4 0 6 7 10 15 10 8
0 15 -2 15 -4z m1004 -19 c-4 -7 -14 -20 -22 -29 -13 -16 -13 -18 2 -24 21 -8
20 -17 -4 -32 -19 -12 -20 -11 -14 13 4 16 2 25 -6 25 -6 0 -8 5 -4 12 5 8 2
9 -9 5 -28 -10 -19 6 15 30 31 22 54 22 42 0z m-1151 -16 c-15 -10 -38 -20
-49 -23 -17 -4 -20 -2 -17 13 3 10 9 16 14 13 5 -2 21 2 36 10 38 19 52 8 16
-13z m687 19 c0 -5 -5 -10 -11 -10 -5 0 -7 5 -4 10 3 6 8 10 11 10 2 0 4 -4 4
-10z m-35 -26 c16 -25 16 -25 -4 -15 -14 8 -22 8 -27 -1 -4 -7 -3 -8 4 -4 15
9 15 -3 0 -37 -16 -33 -31 -36 -23 -4 5 18 2 23 -14 23 -12 0 -21 -5 -21 -10
0 -5 -3 -6 -7 -2 -5 5 59 72 73 76 1 0 9 -12 19 -26z m935 17 c0 -12 -20 -25
-27 -18 -7 7 6 27 18 27 5 0 9 -4 9 -9z m-1794 -29 c-18 -16 -18 -16 -6 6 6
13 14 21 18 18 3 -4 -2 -14 -12 -24z m119 18 c3 -5 1 -10 -4 -10 -6 0 -11 5
-11 10 0 6 2 10 4 10 3 0 8 -4 11 -10z m385 2 c0 -5 -7 -17 -15 -28 -15 -19
-20 -8 -9 20 6 17 24 22 24 8z m38 -17 c0 -23 -17 -33 -31 -19 -6 7 14 44 24
44 4 0 7 -11 7 -25z m637 15 c3 -5 2 -10 -3 -10 -5 0 -14 -10 -20 -22 -8 -18
-11 -19 -11 -5 -1 9 -7 17 -13 17 -8 0 -5 7 6 15 23 18 33 19 41 5z m675 -11
c14 -24 -5 -56 -24 -40 -7 6 -25 4 -48 -4 -21 -7 -38 -9 -38 -4 0 5 5 9 10 9
6 0 16 5 23 10 24 20 62 49 64 50 1 0 7 -9 13 -21z m-318 -11 c-7 -7 -12 -8
-12 -2 0 6 3 14 7 17 3 4 9 5 12 2 2 -3 -1 -11 -7 -17z m-2122 -25 c0 -19 -4
-24 -16 -19 -9 4 -22 2 -29 -4 -9 -8 -15 -8 -20 0 -8 13 12 40 31 40 8 0 14 5
14 11 0 5 5 7 10 4 6 -3 10 -18 10 -32z m160 24 c0 -9 -12 -14 -31 -14 -29 0
-30 2 -13 14 10 7 24 13 31 13 7 0 13 -6 13 -13z m149 -6 c8 -15 7 -20 -5 -25
-24 -9 -27 -7 -20 11 5 13 0 11 -19 -7 -23 -21 -25 -22 -19 -5 18 46 46 58 63
26z m501 5 c0 -21 -17 -29 -37 -17 -17 10 -17 10 0 11 9 0 17 5 17 10 0 6 5
10 10 10 6 0 10 -6 10 -14z m-734 -11 c13 -12 12 -15 -7 -25 -11 -7 -23 -9
-27 -6 -3 3 0 6 7 6 8 0 10 7 6 20 -7 24 1 26 21 5z m924 -1 c0 -8 -5 -12 -10
-9 -6 4 -8 11 -5 16 9 14 15 11 15 -7z m215 -3 c-3 -6 -11 -11 -17 -11 -6 0
-6 6 2 15 14 17 26 13 15 -4z m-259 1 c18 -12 24 -52 8 -52 -8 0 -14 8 -14 18
-1 16 -1 16 -14 0 -18 -24 -29 -23 -16 2 7 14 7 20 0 20 -5 0 -10 5 -10 10 0
12 30 13 46 2z m-511 -12 c-3 -5 -11 -10 -16 -10 -6 0 -7 5 -4 10 3 6 11 10
16 10 6 0 7 -4 4 -10z m202 -12 c-3 -8 -6 -5 -6 6 -1 11 2 17 5 13 3 -3 4 -12
1 -19z m225 0 c-6 -6 -15 -8 -19 -4 -4 4 -1 11 7 16 8 5 17 7 19 4 3 -2 -1
-10 -7 -16z m714 -15 c-21 -23 -28 -25 -35 -14 -11 17 6 37 35 43 29 6 29 2 0
-29z m-1086 17 c0 -5 -2 -10 -4 -10 -3 0 -8 5 -11 10 -3 6 -1 10 4 10 6 0 11
-4 11 -10z m740 0 c0 -5 -4 -10 -10 -10 -5 0 -10 5 -10 10 0 6 5 10 10 10 6 0
10 -4 10 -10z m1013 -27 c-1 -21 -2 -41 -2 -45 -1 -10 -31 -38 -41 -38 -13 0
0 32 19 48 14 12 14 13 -1 8 -10 -3 -18 -2 -18 1 0 4 8 15 18 26 16 19 16 19
-5 13 -13 -4 -23 -5 -23 -1 0 5 36 23 50 24 3 1 4 -16 3 -36z m-2095 -15 c-2
-25 -9 -33 -30 -39 -34 -9 -36 4 -6 25 31 22 14 32 -19 12 l-28 -17 28 25 c39
36 59 34 55 -6z m142 23 c0 -9 -44 -41 -56 -41 -4 0 3 11 16 25 24 26 40 32
40 16z m270 5 c0 -3 -4 -8 -10 -11 -5 -3 -10 -1 -10 4 0 6 5 11 10 11 6 0 10
-2 10 -4z m58 -18 c-4 -31 -25 -34 -25 -3 0 15 5 25 14 25 9 0 13 -8 11 -22z
m-282 -15 c-7 -7 -26 7 -26 19 0 6 6 6 15 -2 9 -7 13 -15 11 -17z m435 -16
c-12 -12 -41 -19 -41 -9 0 3 10 17 23 30 19 20 22 21 25 7 2 -10 -1 -22 -7
-28z m954 33 c-3 -5 1 -10 10 -10 12 0 14 -6 9 -27 -6 -22 -4 -25 10 -20 34
13 11 -28 -27 -48 -29 -15 -36 -5 -12 15 16 13 21 40 8 40 -5 0 -8 14 -9 30
-1 17 3 30 8 30 5 0 6 -4 3 -10z m210 -15 c0 -29 -2 -30 -20 -11 -10 10 -11
16 -2 25 17 17 22 14 22 -14z m-1475 -11 c0 -21 -27 -17 -33 5 -3 14 0 17 14
14 11 -3 19 -12 19 -19z m420 11 c0 -8 -4 -15 -10 -15 -5 0 -10 7 -10 15 0 8
5 15 10 15 6 0 10 -7 10 -15z m388 1 c-10 -7 -18 -18 -18 -23 0 -6 -7 -16 -15
-23 -12 -10 -15 -10 -15 4 0 9 5 16 11 16 5 0 7 5 4 10 -3 6 4 14 17 19 32 13
36 13 16 -3z m252 10 c0 -3 -4 -8 -10 -11 -5 -3 -10 -1 -10 4 0 6 5 11 10 11
6 0 10 -2 10 -4z m615 -6 c3 -5 1 -10 -4 -10 -6 0 -11 5 -11 10 0 6 2 10 4 10
3 0 8 -4 11 -10z m315 -23 c0 -5 -4 -5 -10 -2 -5 3 -10 14 -10 23 0 15 2 15
10 2 5 -8 10 -19 10 -23z m-1347 17 c-7 -3 -9 -12 -6 -21 4 -10 2 -14 -3 -10
-7 4 -9 -6 -6 -26 4 -28 3 -30 -11 -19 -10 9 -17 10 -22 2 -3 -5 -11 -10 -17
-10 -6 0 -1 11 12 25 16 17 19 25 9 25 -9 1 -6 7 10 20 13 11 28 20 35 19 8 0
7 -2 -1 -5z m975 -20 c2 -17 -3 -20 -33 -21 -32 -1 -34 1 -23 15 29 37 51 39
56 6z m-2082 -39 c-6 -14 -14 -25 -18 -25 -12 0 -10 18 2 25 15 9 2 25 -15 18
-9 -3 -15 1 -15 10 0 22 22 27 41 10 14 -11 15 -19 5 -38z m844 40 c0 -8 -4
-15 -10 -15 -5 0 -10 7 -10 15 0 8 5 15 10 15 6 0 10 -7 10 -15z m575 -3 c-11
-2 -24 -8 -29 -13 -6 -5 -17 -9 -25 -9 -12 0 -9 6 8 19 14 11 32 16 45 13 20
-6 20 -6 1 -10z m-1095 -7 c6 -8 9 -19 5 -26 -6 -8 -9 -8 -14 0 -5 8 -15 5
-31 -9 -32 -28 -48 -25 -22 3 24 25 29 43 10 31 -7 -4 -8 -3 -4 4 10 17 41 15
56 -3z m70 5 c0 -5 -5 -10 -11 -10 -5 0 -7 5 -4 10 3 6 8 10 11 10 2 0 4 -4 4
-10z m780 1 c0 -6 -4 -13 -10 -16 -5 -3 -10 1 -10 9 0 9 5 16 10 16 6 0 10 -4
10 -9z m973 -6 c-3 -9 -8 -14 -10 -11 -3 3 -2 9 2 15 9 16 15 13 8 -4z m-1480
-15 c4 -17 2 -18 -14 -9 -11 5 -17 14 -14 20 10 15 22 10 28 -11z m232 10 c-3
-5 -11 -10 -16 -10 -6 0 -7 5 -4 10 3 6 11 10 16 10 6 0 7 -4 4 -10z m655 -15
c-12 -15 -30 -12 -30 5 0 8 31 19 39 13 2 -1 -2 -9 -9 -18z m860 2 c0 -17 -46
-36 -70 -30 -23 6 -17 23 9 23 10 0 24 7 31 15 13 16 30 11 30 -8z m-984 -3
c-3 -9 -6 -20 -6 -25 0 -5 -7 -9 -15 -9 -18 0 -20 36 -2 43 23 10 29 7 23 -9z
m-986 1 c0 -2 -10 -9 -22 -15 -22 -11 -22 -10 -4 4 21 17 26 19 26 11z m190
-36 c0 -11 -4 -17 -10 -14 -5 3 -10 14 -10 23 0 13 -4 12 -19 -7 -14 -18 -23
-22 -37 -16 -17 8 -17 9 5 13 13 2 26 12 28 23 4 15 9 16 24 8 10 -5 19 -19
19 -30z m390 31 c0 -5 -5 -10 -11 -10 -5 0 -7 5 -4 10 3 6 8 10 11 10 2 0 4
-4 4 -10z m-1103 -22 c-3 -8 -6 -5 -6 6 -1 11 2 17 5 13 3 -3 4 -12 1 -19z
m826 -12 c-10 -14 -22 -26 -26 -26 -4 0 2 13 14 30 13 16 24 28 27 26 2 -3 -4
-16 -15 -30z m221 17 c5 -12 -69 -93 -86 -93 -14 0 -9 18 8 24 8 3 13 10 10
15 -3 5 1 11 9 15 8 3 15 13 15 21 0 12 -6 15 -22 10 -19 -6 -21 -5 -10 6 10
11 16 11 32 1 26 -16 35 -15 21 1 -8 10 -7 14 4 14 8 0 16 -6 19 -14z m306 1
c0 -10 -6 -14 -15 -11 -8 4 -17 2 -20 -3 -4 -6 -11 -10 -17 -10 -6 0 -3 9 7
20 22 24 45 26 45 4z m690 -4 c0 -11 -2 -20 -4 -20 -2 0 -6 9 -9 20 -3 11 -1
20 4 20 5 0 9 -9 9 -20z m113 -1 c-5 -18 -39 -40 -61 -39 -5 0 58 59 65 60 0
0 -1 -9 -4 -21z m-174 -11 c-11 -20 -48 -42 -56 -34 -4 3 3 14 15 24 12 11 20
21 17 23 -2 3 4 5 15 5 14 0 16 -4 9 -18z m-1752 -17 c1 -18 -5 -35 -19 -47
-20 -19 -21 -19 -13 5 6 20 4 23 -9 18 -10 -4 -16 -1 -16 8 0 24 4 29 22 30
10 1 21 5 25 8 3 4 7 7 7 7 1 0 2 -13 3 -29z m1963 19 c0 -5 -4 -10 -10 -10
-5 0 -10 5 -10 10 0 6 5 10 10 10 6 0 10 -4 10 -10z m180 -11 c0 -6 -4 -7 -10
-4 -5 3 -10 11 -10 16 0 6 5 7 10 4 6 -3 10 -11 10 -16z m-1840 1 c0 -5 -5
-10 -11 -10 -5 0 -7 5 -4 10 3 6 8 10 11 10 2 0 4 -4 4 -10z m1120 -6 c0 -8 5
-12 10 -9 6 3 10 1 10 -5 0 -12 -50 -33 -59 -25 -3 4 2 11 12 16 9 6 17 15 17
20 0 6 -5 7 -12 3 -7 -4 -8 -3 -4 4 10 17 26 15 26 -4z m96 -11 c-10 -10 -19
5 -10 18 6 11 8 11 12 0 2 -7 1 -15 -2 -18z m334 17 c0 -5 -5 -10 -11 -10 -5
0 -7 5 -4 10 3 6 8 10 11 10 2 0 4 -4 4 -10z m-907 -38 c-4 -18 -8 -20 -19
-11 -17 14 -18 36 -1 42 18 7 27 -6 20 -31z m1114 11 c-9 -9 -19 -14 -22 -11
-3 3 2 13 11 22 9 9 19 14 22 11 3 -3 -2 -13 -11 -22z m-1934 -3 c-3 -11 -14
-20 -24 -20 -26 0 -33 17 -12 29 28 16 42 13 36 -9z m201 -4 c-5 -13 -44 -29
-52 -22 -2 2 7 13 19 25 23 21 42 20 33 -3z m320 9 c3 -8 3 -22 0 -30 -7 -17
-44 -21 -44 -4 0 8 -5 7 -15 -1 -9 -7 -19 -10 -22 -6 -8 8 46 55 63 56 7 0 14
-7 18 -15z m636 -10 l24 -26 -22 -6 c-12 -3 -22 -11 -22 -19 0 -7 -5 -16 -12
-20 -11 -7 -11 -5 9 61 5 16 4 18 -8 9 -8 -6 -23 -14 -34 -18 -17 -6 -17 -4 4
18 30 32 32 32 61 1z m360 9 c0 -8 -5 -12 -10 -9 -6 4 -8 11 -5 16 9 14 15 11
15 -7z m289 -45 c-19 -12 -32 -11 -23 2 4 8 -3 9 -27 4 l-33 -7 30 25 29 25
19 -20 c15 -17 16 -22 5 -29z m-959 26 c10 -12 10 -15 -4 -15 -9 0 -16 7 -16
15 0 8 2 15 4 15 2 0 9 -7 16 -15z m124 7 c2 -4 -7 -9 -20 -10 -15 -1 -22 2
-19 8 7 12 32 13 39 2z m642 -16 c-3 -13 -3 -26 2 -29 4 -2 2 -2 -5 -1 -7 2
-15 -1 -18 -6 -3 -5 -14 -8 -25 -7 -23 1 -9 23 21 32 10 4 19 13 19 21 0 8 3
14 6 14 3 0 3 -11 0 -24z m554 14 c0 -5 -2 -10 -4 -10 -3 0 -8 5 -11 10 -3 6
-1 10 4 10 6 0 11 -4 11 -10z m-2480 -15 c-6 -8 -9 -18 -6 -23 3 -6 -1 -15 -9
-22 -13 -10 -15 -9 -15 9 0 12 -4 19 -10 16 -17 -11 -11 7 8 21 25 19 48 19
32 -1z m1890 11 c0 -3 -4 -8 -10 -11 -5 -3 -10 -1 -10 4 0 6 5 11 10 11 6 0
10 -2 10 -4z m-1311 -37 c-19 -12 -24 -2 -8 17 9 11 14 13 17 4 3 -7 -2 -16
-9 -21z m423 -11 c-3 -13 -14 -18 -38 -18 -19 0 -34 -4 -34 -10 0 -5 -4 -10
-10 -10 -5 0 -7 7 -4 15 4 8 13 15 21 15 20 0 46 28 38 41 -4 6 1 5 13 -2 12
-7 17 -19 14 -31z m1258 32 c0 -5 -9 -14 -20 -20 -22 -12 -27 -1 -8 18 14 14
28 16 28 2z m161 -4 c5 3 9 1 9 -5 0 -15 -18 -23 -22 -9 -3 7 -7 8 -11 2 -3
-5 -2 -16 3 -24 7 -12 12 -11 29 4 12 11 21 15 21 9 0 -9 -45 -53 -56 -53 -2
0 -4 8 -2 18 2 9 -3 16 -9 15 -16 -4 -13 15 7 39 8 10 16 14 18 8 2 -5 8 -8
13 -4z m-2006 -6 c3 -5 -1 -10 -9 -10 -9 0 -16 5 -16 10 0 6 4 10 9 10 6 0 13
-4 16 -10z m254 -41 c-21 -39 -35 -19 -22 30 6 22 7 23 19 6 9 -13 10 -23 3
-36z m1116 30 c0 -9 -11 -14 -27 -14 -31 -1 -38 21 -10 28 25 7 37 2 37 -14z
m-1763 -11 c-7 -7 -12 -8 -12 -2 0 14 12 26 19 19 2 -3 -1 -11 -7 -17z m608
18 c0 -3 -4 -8 -10 -11 -5 -3 -10 -1 -10 4 0 6 5 11 10 11 6 0 10 -2 10 -4z
m660 0 c0 -2 -7 -7 -16 -10 -8 -3 -12 -2 -9 4 6 10 25 14 25 6z m42 -28 c-9
-9 -12 -7 -12 12 0 19 3 21 12 12 9 -9 9 -15 0 -24z m288 12 c0 -15 -7 -20
-25 -20 -24 0 -24 1 -8 20 10 11 21 20 25 20 5 0 8 -9 8 -20z m680 9 c0 -5 -5
-7 -11 -3 -8 4 -9 -3 -4 -26 6 -27 3 -35 -26 -61 -32 -29 -49 -36 -49 -21 0 4
14 15 30 24 32 18 45 66 15 54 -24 -9 -17 20 8 32 29 14 37 14 37 1z m-1950
-5 c0 -17 -24 -46 -51 -59 l-30 -16 15 24 c9 13 13 26 10 30 -11 11 7 27 32
27 13 0 24 -3 24 -6z m1640 -19 c0 -8 -4 -15 -9 -15 -13 0 -22 16 -14 24 11
11 23 6 23 -9z m-1520 -4 c0 -5 2 -15 5 -23 3 -8 -7 -21 -25 -31 -16 -10 -30
-14 -30 -9 0 6 7 13 16 16 10 4 14 12 10 22 -3 9 -4 20 0 25 7 12 24 12 24 0z
m1220 -1 c0 -5 -4 -10 -10 -10 -5 0 -10 5 -10 10 0 6 5 10 10 10 6 0 10 -4 10
-10z m402 -12 c-7 -7 -12 -8 -12 -2 0 14 12 26 19 19 2 -3 -1 -11 -7 -17z
m-1915 -3 c15 -16 11 -45 -6 -45 -6 0 -8 7 -4 16 4 11 -1 22 -12 30 -11 8 -13
14 -6 14 7 0 19 -7 28 -15z m653 -18 c14 -17 19 -28 13 -24 -7 5 -13 4 -13 -1
0 -6 -7 -13 -16 -16 -14 -5 -16 -1 -11 24 7 32 -3 39 -22 16 -9 -11 -9 -15 1
-19 7 -2 1 -4 -14 -3 -32 1 -37 13 -10 23 9 4 21 12 25 20 12 19 19 16 47 -20z
m255 23 c-3 -5 -11 -10 -16 -10 -6 0 -7 5 -4 10 3 6 11 10 16 10 6 0 7 -4 4
-10z m860 0 c-3 -5 -12 -10 -20 -10 -7 0 -15 -7 -19 -15 -3 -8 -11 -15 -17
-15 -7 0 -2 11 11 25 23 24 58 36 45 15z m-695 -15 c-7 -9 -15 -13 -17 -11 -7
7 7 26 19 26 6 0 6 -6 -2 -15z m-1125 -14 c-3 -6 -14 -11 -23 -11 -15 1 -15 2
2 15 21 16 32 13 21 -4z m459 -2 c-3 -5 -10 -7 -15 -3 -5 3 -7 10 -3 15 3 5
10 7 15 3 5 -3 7 -10 3 -15z m875 -42 c-6 -9 -8 -21 -5 -25 2 -4 -4 -8 -14 -9
-27 -2 -34 14 -10 22 23 7 27 35 5 35 -18 0 -19 12 -3 28 17 17 40 -26 27 -51z
m116 43 c-3 -5 -11 -10 -16 -10 -6 0 -7 5 -4 10 3 6 11 10 16 10 6 0 7 -4 4
-10z m50 -11 c-4 -5 -13 -9 -22 -9 -13 0 -13 3 -3 15 13 15 35 11 25 -6z m135
1 c-6 -11 -18 -20 -26 -20 -12 0 -10 5 7 20 30 25 32 25 19 0z m-1091 -56 c-8
-10 -15 -11 -24 -4 -6 5 -15 7 -19 3 -4 -4 -4 0 0 10 3 9 12 17 19 17 7 0 16
10 20 23 7 21 8 21 12 -6 3 -16 -1 -35 -8 -43z m541 62 c0 -3 -4 -8 -10 -11
-5 -3 -10 -1 -10 4 0 6 5 11 10 11 6 0 10 -2 10 -4z m-859 -16 c5 0 9 -7 9
-15 0 -18 -42 -5 -48 15 -3 9 1 11 12 7 10 -4 22 -7 27 -7z m613 1 c4 -5 -8
-12 -25 -16 -17 -4 -33 -13 -36 -21 -3 -8 -9 -11 -15 -8 -13 9 23 46 39 40 7
-3 13 -1 13 4 0 13 17 13 24 1z m164 -16 c0 -14 -10 -30 -23 -39 -22 -14 -22
-14 -11 9 7 16 13 20 19 12 6 -8 7 -7 4 3 -3 10 -14 14 -31 12 -29 -3 -36 14
-8 21 40 11 50 7 50 -18z m182 15 c0 -5 -4 -10 -10 -10 -5 0 -10 5 -10 10 0 6
5 10 10 10 6 0 10 -4 10 -10z m95 0 c3 -5 1 -10 -4 -10 -6 0 -11 5 -11 10 0 6
2 10 4 10 3 0 8 -4 11 -10z m415 -24 c0 -4 -7 -3 -15 4 -8 6 -19 9 -24 5 -7
-3 -8 0 -5 9 5 12 9 13 25 3 10 -6 19 -16 19 -21z m282 12 c5 -26 -17 -78 -32
-78 -16 0 -12 22 7 43 17 18 17 19 -22 12 -42 -8 -42 -3 2 26 37 23 41 23 45
-3z m338 8 c0 -18 -20 -25 -45 -16 -19 8 -19 8 5 18 34 15 40 14 40 -2z
m-1410 -6 c0 -5 -2 -10 -4 -10 -3 0 -8 5 -11 10 -3 6 -1 10 4 10 6 0 11 -4 11
-10z m240 6 c0 -9 -30 -14 -35 -6 -4 6 3 10 14 10 12 0 21 -2 21 -4z m236 -23
c-10 -10 -19 5 -10 18 6 11 8 11 12 0 2 -7 1 -15 -2 -18z m414 12 c0 -8 11
-22 25 -31 28 -18 34 -40 9 -30 -9 4 -22 0 -28 -8 -10 -13 -13 -13 -26 2 -13
14 -13 15 2 10 11 -5 16 0 16 18 0 17 -6 24 -20 24 -17 0 -18 3 -8 15 16 19
30 19 30 0z m-1450 -5 c0 -5 -10 -20 -22 -32 -27 -27 -39 -6 -12 23 19 21 34
25 34 9z m128 -15 c-29 -27 -38 -30 -38 -16 0 6 12 16 28 24 39 21 40 20 10
-8z m-278 0 c10 -13 10 -19 -2 -33 -9 -9 -13 -23 -11 -29 3 -7 0 -13 -6 -13
-6 0 -11 14 -11 30 0 22 -5 30 -17 30 -16 1 -16 2 1 15 25 19 31 19 46 0z
m670 -28 c0 -5 -7 -6 -16 -3 -9 4 -27 -1 -40 -9 -30 -19 -30 -11 -1 25 20 25
24 26 40 12 9 -8 17 -19 17 -25z m319 5 c-11 -8 -26 -11 -34 -8 -8 3 -19 -3
-24 -12 -7 -13 -13 -14 -21 -5 -16 15 30 46 54 37 10 -4 18 0 22 11 5 13 9 14
15 4 5 -8 0 -18 -12 -27z m315 0 c-6 -4 -16 -16 -23 -27 -11 -18 -12 -18 -6 8
6 30 3 32 -28 16 -15 -7 -13 -2 8 15 27 23 31 24 45 10 10 -10 12 -17 4 -22z
m126 34 c0 -3 -4 -8 -10 -11 -5 -3 -10 -1 -10 4 0 6 5 11 10 11 6 0 10 -2 10
-4z m400 -12 c0 -8 -4 -12 -10 -9 -5 3 -10 10 -10 16 0 5 5 9 10 9 6 0 10 -7
10 -16z m150 7 c0 -5 -9 -11 -21 -14 -16 -4 -18 -3 -8 9 13 16 29 19 29 5z
m-1425 -39 c-8 -8 -25 10 -19 20 4 6 9 5 15 -3 4 -7 6 -15 4 -17z m1449 19 c3
-5 -1 -11 -9 -15 -15 -6 -29 7 -18 18 9 9 21 8 27 -3z m98 -13 c-6 -6 -15 -8
-19 -4 -4 4 -1 11 7 16 19 12 27 3 12 -12z m-2233 -1 c15 -19 -4 -35 -35 -29
-28 5 -32 28 -6 35 28 8 29 8 41 -6z m621 4 c0 -5 -9 -11 -21 -14 -16 -4 -18
-3 -8 9 13 16 29 19 29 5z m960 0 c0 -6 -4 -13 -10 -16 -5 -3 -10 1 -10 9 0 9
5 16 10 16 6 0 10 -4 10 -9z m459 -10 c-13 -11 -26 -17 -28 -15 -5 5 30 33 43
34 4 0 -2 -9 -15 -19z m241 9 c0 -5 -2 -10 -4 -10 -3 0 -8 5 -11 10 -3 6 -1
10 4 10 6 0 11 -4 11 -10z m-1294 -27 c-10 -10 -19 5 -10 18 6 11 8 11 12 0 2
-7 1 -15 -2 -18z m-659 -18 c-6 -18 -37 -18 -37 0 0 12 -6 15 -20 10 -11 -3
-20 -2 -20 4 0 14 42 18 63 6 9 -5 16 -14 14 -20z m319 8 c-10 -10 -19 5 -10
18 6 11 8 11 12 0 2 -7 1 -15 -2 -18z m674 -5 c0 -6 -7 -5 -15 2 -8 7 -15 17
-15 22 0 6 7 5 15 -2 8 -7 15 -17 15 -22z m-780 7 c0 -9 -6 -12 -15 -9 -8 4
-12 10 -9 15 8 14 24 10 24 -6z m74 0 c-4 -8 -12 -15 -20 -15 -8 0 -14 -4 -14
-10 0 -5 -8 -10 -17 -10 -11 0 -6 8 17 25 40 29 41 30 34 10z m330 9 c21 -8
21 -50 0 -58 -23 -9 -24 -8 -17 11 5 12 2 15 -10 10 -21 -8 -28 15 -8 30 19
15 16 14 35 7z m980 -18 c-3 -9 -10 -16 -15 -16 -5 0 -9 -7 -9 -15 0 -15 -12
-20 -22 -9 -6 5 44 64 50 59 1 -1 0 -10 -4 -19z m-829 -5 c-8 -13 -35 -15 -35
-2 0 5 8 11 18 13 21 5 26 2 17 -11z m512 -7 c10 -22 10 -24 -3 -13 -20 17
-44 -5 -26 -23 14 -14 16 -28 4 -28 -4 0 -13 14 -20 30 -8 17 -18 27 -23 24
-6 -3 -5 -11 2 -20 16 -20 2 -31 -16 -13 -12 12 -11 17 7 39 14 16 22 21 25
13 3 -7 9 -13 15 -13 6 0 8 7 4 15 -10 26 18 16 31 -11z m504 9 c13 -16 12
-17 -3 -4 -17 13 -22 21 -14 21 2 0 10 -8 17 -17z m139 8 c0 -5 -8 -11 -17
-15 -10 -3 -24 -9 -32 -12 -7 -4 -5 3 5 14 20 21 44 28 44 13z m-2431 -37
c-13 -16 -39 -19 -39 -4 0 6 5 10 10 10 6 0 10 7 10 16 0 14 3 14 15 4 12 -10
13 -16 4 -26z m661 20 c0 -2 -7 -4 -15 -4 -8 0 -15 4 -15 10 0 5 7 7 15 4 8
-4 15 -8 15 -10z m787 -24 c-1 -13 -7 -17 -22 -13 -11 3 -28 6 -37 6 -21 1
-23 11 -5 26 10 8 17 7 25 -1 9 -9 12 -8 12 6 0 15 3 16 14 7 8 -7 14 -21 13
-31z m1010 17 c-1 -5 -10 -11 -18 -13 -7 -1 -23 -5 -34 -10 -14 -5 -12 0 9 19
28 25 51 27 43 4z m-1477 -17 c10 0 21 -4 24 -8 3 -5 -16 -8 -42 -8 -27 1 -45
5 -43 11 2 6 6 16 8 22 4 9 9 9 20 -2 8 -8 23 -15 33 -15z m715 20 c-3 -5 -11
-10 -16 -10 -6 0 -7 5 -4 10 3 6 11 10 16 10 6 0 7 -4 4 -10z m-1370 -21 c-5
-15 -4 -19 5 -14 7 4 4 -4 -5 -19 -19 -29 -39 -25 -30 5 4 10 2 19 -4 19 -6 0
-8 7 -5 15 4 8 15 15 26 15 15 0 18 -5 13 -21z m1795 -1 c0 -12 -3 -18 -7 -15
-3 4 -13 1 -21 -6 -9 -6 -13 -7 -10 -2 2 6 8 18 11 28 9 24 27 21 27 -5z m130
12 c0 -5 -4 -10 -10 -10 -5 0 -10 5 -10 10 0 6 5 10 10 10 6 0 10 -4 10 -10z
m38 -9 c3 -8 -1 -12 -9 -9 -7 2 -15 10 -17 17 -3 8 1 12 9 9 7 -2 15 -10 17
-17z m-1668 -13 c17 -19 18 -24 7 -33 -8 -5 -14 -14 -15 -20 0 -5 -5 -11 -11
-13 -18 -6 -12 36 7 47 16 9 16 10 0 16 -10 4 -18 11 -18 16 0 14 8 11 30 -13z
m670 -2 c0 -8 -9 -24 -20 -37 -21 -26 -26 -19 -9 13 10 19 9 20 -12 15 -23 -6
-23 -5 -5 8 25 19 46 19 46 1z m625 4 c-3 -5 -12 -10 -18 -10 -7 0 -6 4 3 10
19 12 23 12 15 0z m15 -20 c-18 -16 -36 -27 -39 -24 -6 6 49 53 63 54 5 0 -5
-13 -24 -30z m-1540 10 c0 -5 -5 -10 -11 -10 -5 0 -7 5 -4 10 3 6 8 10 11 10
2 0 4 -4 4 -10z m411 -20 c16 0 29 -3 29 -7 0 -12 -20 -39 -20 -28 0 5 -7 -1
-16 -13 -8 -12 -23 -22 -32 -22 -13 0 -12 5 8 20 23 19 24 21 8 34 -10 7 -17
22 -17 32 1 17 2 17 6 2 3 -12 14 -18 34 -18z m788 17 c8 -10 7 -14 -4 -14 -8
0 -15 6 -15 14 0 7 2 13 4 13 2 0 9 -6 15 -13z m671 -24 c0 -8 -4 -12 -9 -8
-5 3 -12 1 -16 -5 -10 -16 -25 -12 -19 5 5 11 1 14 -12 9 -14 -4 -12 0 6 14
26 22 50 14 50 -15z m-2260 7 c0 -13 -7 -20 -20 -20 -19 0 -27 20 -13 33 13
14 33 6 33 -13z m153 -5 c-6 -17 -49 -46 -56 -38 -4 3 0 18 8 33 11 20 20 27
34 23 11 -3 17 -11 14 -18z m287 14 c0 -6 8 -8 19 -4 13 4 23 -2 34 -19 15
-22 14 -25 -6 -43 -37 -34 -51 -39 -38 -14 10 17 9 21 -4 21 -13 0 -20 17 -17
41 1 4 -9 5 -21 2 -22 -5 -22 -5 -2 10 24 19 35 21 35 6z m540 -6 c-1 -20 -19
-33 -50 -38 -19 -3 -29 -2 -21 1 7 4 22 15 32 25 19 19 39 25 39 12z m-240
-10 c-1 -18 -19 -35 -29 -28 -9 5 -7 11 6 21 21 16 23 16 23 7z m-650 -13 c0
-5 -9 -10 -21 -10 -11 0 -17 5 -14 10 3 6 13 10 21 10 8 0 14 -4 14 -10z
m1345 -48 c-36 -18 -46 -6 -15 19 l25 20 -25 -7 c-23 -6 -24 -5 -10 11 13 16
15 16 33 -6 18 -23 18 -23 -8 -37z m170 48 c8 -13 -12 -40 -30 -40 -9 0 -13
27 -6 48 3 7 31 1 36 -8z m-1415 -10 c0 -5 -4 -10 -9 -10 -6 0 -13 5 -16 10
-3 6 1 10 9 10 9 0 16 -4 16 -10z m470 0 c0 -5 -2 -10 -4 -10 -3 0 -8 5 -11
10 -3 6 -1 10 4 10 6 0 11 -4 11 -10z m479 -26 c-10 -12 -14 -12 -20 -2 -6 10
-11 9 -21 -5 -13 -17 -14 -17 -15 3 -1 11 2 18 7 15 4 -3 11 2 14 10 5 13 10
14 26 5 17 -9 19 -14 9 -26z m48 4 c-3 -7 -5 -2 -5 12 0 14 2 19 5 13 2 -7 2
-19 0 -25z m739 7 c-3 -9 -11 -13 -16 -10 -8 5 -7 11 1 21 14 18 24 11 15 -11z
m511 -5 c2 -13 1 -31 -2 -39 -5 -14 -7 -14 -15 -1 -14 22 -12 72 2 68 6 -2 13
-15 15 -28z m-917 10 c0 -5 -5 -10 -11 -10 -5 0 -7 5 -4 10 3 6 8 10 11 10 2
0 4 -4 4 -10z m254 -13 c-1 -10 4 -13 13 -10 13 5 13 2 5 -14 -6 -11 -19 -26
-28 -34 -16 -13 -17 -12 -11 12 5 21 3 28 -13 32 -11 3 -20 11 -20 17 0 7 7
10 15 6 8 -3 15 -1 15 5 0 6 6 9 13 6 6 -2 11 -11 11 -20z m201 13 c3 -5 1
-10 -4 -10 -6 0 -11 5 -11 10 0 6 2 10 4 10 3 0 8 -4 11 -10z m285 0 c0 -5 -9
-14 -20 -20 -22 -12 -27 -1 -8 18 14 14 28 16 28 2z m-2250 -25 c10 -12 10
-19 2 -27 -9 -9 -12 -8 -12 5 0 15 -3 15 -20 5 -24 -15 -37 -4 -20 17 16 19
34 19 50 0z m1245 5 c-3 -5 -10 -10 -16 -10 -5 0 -9 5 -9 10 0 6 7 10 16 10 8
0 12 -4 9 -10z m435 -10 c-8 -5 -17 -7 -19 -4 -3 3 1 9 9 14 8 5 17 7 19 4 3
-3 -1 -9 -9 -14z m396 11 c-8 -12 -46 -21 -46 -11 0 9 18 18 38 19 7 1 11 -3
8 -8z m34 5 c0 -12 -31 -76 -40 -81 -6 -3 -7 0 -4 9 8 21 0 20 -34 -1 -18 -12
-13 -3 18 29 40 41 60 56 60 44z m-1990 -16 c0 -5 -5 -10 -11 -10 -5 0 -7 5
-4 10 3 6 8 10 11 10 2 0 4 -4 4 -10z m183 -2 c-23 -11 -31 -28 -13 -28 6 0
10 -5 10 -12 0 -17 -41 -58 -59 -58 -10 0 -6 9 13 29 23 24 26 32 17 49 -12
22 -3 30 34 31 18 0 18 -1 -2 -11z m329 -8 l21 -19 -27 -11 c-37 -14 -46 -13
-40 5 4 8 1 15 -5 15 -18 0 -13 18 7 23 9 3 18 5 20 6 2 0 12 -8 24 -19z m168
13 c-1 -23 -60 -57 -60 -35 0 10 39 41 53 41 4 1 7 -2 7 -6z m524 -9 c4 -10 1
-14 -6 -12 -15 5 -23 28 -10 28 5 0 13 -7 16 -16z m-354 -34 c0 -3 -8 -6 -17
-6 -10 -1 -27 -5 -37 -9 -13 -6 -17 -5 -13 2 4 6 1 13 -5 16 -7 2 -9 8 -5 13
4 5 12 2 16 -5 11 -17 31 -6 31 17 1 15 2 15 15 -2 8 -11 15 -22 15 -26z m620
20 c-14 -10 -27 -17 -29 -15 -8 8 22 35 38 35 12 0 10 -5 -9 -20z m656 -1 c8
-14 -16 -60 -28 -53 -4 3 -3 14 2 25 12 22 1 25 -20 7 -8 -7 -6 -3 4 10 21 24
31 27 42 11z m59 1 c11 -17 -5 -31 -19 -17 -14 12 -12 27 4 27 5 0 12 -4 15
-10z m-1829 -56 c-9 -6 -16 -19 -16 -28 0 -10 -5 -14 -10 -11 -6 4 -8 16 -4
27 6 19 5 19 -20 3 -24 -16 -26 -16 -26 -1 0 9 10 20 23 25 13 5 29 17 37 26
13 15 15 15 22 -6 7 -17 5 -27 -6 -35z m994 46 c0 -5 -2 -10 -4 -10 -3 0 -8 5
-11 10 -3 6 -1 10 4 10 6 0 11 -4 11 -10z m-210 -10 c0 -13 -28 -25 -38 -16
-3 4 0 11 8 16 20 13 30 12 30 0z m157 -21 c3 -19 2 -19 -13 -5 -8 9 -12 21
-9 27 4 5 10 8 13 4 3 -3 7 -15 9 -26z m-1264 7 c10 -8 15 -20 11 -30 -8 -20
-18 -20 -38 0 -9 8 -20 12 -26 9 -5 -3 -10 1 -10 9 0 12 12 20 40 25 3 0 13
-6 23 -13z m1172 4 c3 -5 1 -10 -4 -10 -6 0 -11 5 -11 10 0 6 2 10 4 10 3 0 8
-4 11 -10z m585 -1 c0 -8 5 -7 15 1 18 15 28 9 19 -13 -6 -17 -53 -51 -60 -44
-3 2 0 16 6 31 6 18 6 25 0 21 -6 -3 -10 -1 -10 4 0 6 7 11 15 11 8 0 15 -5
15 -11z m-1964 -37 c-23 -23 -33 -6 -10 19 12 13 20 16 22 9 3 -7 -3 -19 -12
-28z m894 28 c0 -5 -2 -10 -4 -10 -3 0 -8 5 -11 10 -3 6 -1 10 4 10 6 0 11 -4
11 -10z m278 -7 c-3 -17 -65 -59 -74 -50 -9 8 18 56 35 60 33 9 42 7 39 -10z
m478 0 c-6 -31 -18 -53 -26 -48 -10 6 0 48 14 57 15 11 16 10 12 -9z m674 7
c0 -5 -4 -10 -10 -10 -5 0 -10 5 -10 10 0 6 5 10 10 10 6 0 10 -4 10 -10z
m-1334 -26 c-19 -13 -46 -19 -46 -9 0 8 55 34 60 28 3 -2 -4 -11 -14 -19z
m827 9 c-4 -10 -11 -21 -17 -25 -16 -11 -38 -10 -31 2 4 6 11 8 16 5 5 -4 9 0
9 9 0 12 6 18 27 25 1 1 -1 -7 -4 -16z m-1008 -3 c-3 -5 1 -10 9 -10 21 0 20
-15 -1 -51 -10 -17 -26 -29 -38 -29 -11 0 -15 4 -10 8 6 4 19 17 29 30 17 19
17 22 3 16 -13 -4 -17 -1 -17 14 0 17 8 26 28 31 2 1 0 -3 -3 -9z m505 -5 c0
-8 -6 -15 -14 -15 -8 0 -23 -3 -33 -6 -14 -4 -13 -1 6 15 27 25 41 27 41 6z
m740 6 c0 -6 -4 -13 -10 -16 -5 -3 -10 1 -10 9 0 9 5 16 10 16 6 0 10 -4 10
-9z m135 -2 c11 -17 -1 -21 -15 -4 -8 9 -8 15 -2 15 6 0 14 -5 17 -11z m335
-11 c0 -19 -2 -20 -10 -8 -13 19 -13 30 0 30 6 0 10 -10 10 -22z m-2454 -7 c0
-10 -6 -17 -12 -14 -7 2 -15 0 -19 -6 -9 -16 -58 -14 -52 2 2 6 10 11 16 9 7
-1 22 4 34 13 28 20 33 19 33 -4z m334 4 c0 -8 -7 -15 -15 -15 -26 0 -18 20
13 29 1 1 2 -6 2 -14z m325 -6 c4 -11 4 -23 0 -27 -7 -7 -25 17 -25 36 0 20
18 14 25 -9z m1405 9 c0 -20 -32 -48 -54 -48 -19 1 -19 2 7 21 15 11 25 25 21
30 -3 5 2 9 10 9 9 0 16 -5 16 -12z m346 3 c-4 -5 -1 -11 6 -13 9 -3 6 -13 -9
-31 -19 -25 -21 -26 -26 -7 -3 11 -1 23 4 26 5 3 9 10 9 16 0 6 -6 6 -15 -2
-9 -7 -19 -10 -22 -6 -4 4 -1 11 7 16 19 12 53 13 46 1z m-1806 -11 c0 -5 -7
-10 -15 -10 -8 0 -15 5 -15 10 0 6 7 10 15 10 8 0 15 -4 15 -10z m210 -10 c-6
-11 -12 -20 -14 -20 -2 0 -2 9 1 20 3 11 9 20 15 20 5 0 4 -9 -2 -20z m617 4
c2 -6 -3 -17 -12 -24 -12 -10 -15 -10 -15 0 0 8 -8 10 -25 6 -17 -4 -25 -2
-25 7 0 8 2 16 4 18 9 9 70 3 73 -7z m-1143 -10 c9 -8 16 -18 16 -20 0 -10
-28 -34 -39 -34 -6 0 -11 -4 -11 -10 0 -5 -7 -7 -16 -3 -13 5 -11 9 9 22 13 9
22 22 20 29 -4 10 -8 10 -19 1 -21 -17 -28 -4 -9 15 20 20 29 20 49 0z m266 6
c0 -5 -4 -10 -10 -10 -5 0 -10 5 -10 10 0 6 5 10 10 10 6 0 10 -4 10 -10z
m430 0 c0 -5 -2 -10 -4 -10 -3 0 -8 5 -11 10 -3 6 -1 10 4 10 6 0 11 -4 11
-10z m320 -15 c0 -8 -4 -15 -9 -15 -13 0 -22 16 -14 24 11 11 23 6 23 -9z
m270 -15 c-14 -11 -19 -20 -12 -20 6 0 12 -11 12 -25 0 -18 -4 -23 -16 -18 -8
3 -13 12 -10 19 3 7 -3 18 -12 23 -15 9 -13 12 16 23 17 7 32 17 32 22 0 5 3
6 7 2 4 -4 -3 -16 -17 -26z m674 15 c-4 -8 -12 -15 -19 -15 -7 0 -22 -3 -32
-7 -16 -6 -16 -5 -4 11 8 9 20 15 27 12 7 -3 16 -1 19 4 9 15 15 12 9 -5z
m-1774 1 c0 -3 -4 -8 -10 -11 -5 -3 -10 -1 -10 4 0 6 5 11 10 11 6 0 10 -2 10
-4z m124 -20 c-4 -9 -13 -15 -20 -12 -8 3 -14 1 -14 -4 0 -6 -5 -10 -10 -10
-15 0 12 39 30 43 20 4 22 3 14 -17z m343 -9 c-7 -7 -23 -18 -35 -25 -18 -10
-22 -10 -22 3 0 8 9 19 20 25 11 6 18 16 14 21 -4 7 2 7 15 0 17 -10 19 -14 8
-24z m809 7 c-5 -14 -9 -15 -19 -5 -9 9 -9 14 3 21 18 11 24 6 16 -16z m584
22 c0 -3 -4 -8 -10 -11 -5 -3 -10 -1 -10 4 0 6 5 11 10 11 6 0 10 -2 10 -4z
m-1823 -32 c-9 -9 -28 6 -21 18 4 6 10 6 17 -1 6 -6 8 -13 4 -17z m393 22 c0
-2 -7 -7 -16 -10 -8 -3 -12 -2 -9 4 6 10 25 14 25 6z m166 -22 c-3 -9 -12 -14
-20 -11 -7 3 -19 0 -25 -6 -6 -6 -11 -7 -11 -1 0 10 52 45 59 39 2 -2 1 -12
-3 -21z m190 -23 c-19 -21 -57 -22 -64 -3 -2 6 2 12 10 12 7 0 22 10 32 22 17
19 19 20 28 4 7 -13 5 -22 -6 -35z m544 39 c0 -5 -5 -10 -11 -10 -5 0 -7 5 -4
10 3 6 8 10 11 10 2 0 4 -4 4 -10z m84 -15 c-4 -8 -12 -15 -20 -15 -17 0 -18
17 -1 23 22 9 27 7 21 -8z m30 -33 c-4 -9 -6 -21 -5 -27 1 -5 -6 -1 -14 9 -17
23 -19 36 -5 36 6 0 10 8 10 18 1 16 1 16 11 -1 6 -10 7 -26 3 -35z m-1965 7
c-19 -12 -24 -2 -8 17 9 11 14 13 17 4 3 -7 -2 -16 -9 -21z m178 14 c4 -12
-35 -29 -44 -19 -8 8 18 37 30 33 6 -2 12 -8 14 -14z m248 -3 c-10 -11 -20
-18 -23 -15 -7 6 18 35 31 35 5 0 2 -9 -8 -20z m735 16 c0 -3 -4 -8 -10 -11
-5 -3 -10 -1 -10 4 0 6 5 11 10 11 6 0 10 -2 10 -4z m485 -6 c3 -5 1 -10 -4
-10 -6 0 -11 5 -11 10 0 6 2 10 4 10 3 0 8 -4 11 -10z m449 -4 c-3 -8 0 -17 6
-21 8 -5 8 -10 0 -20 -8 -10 -8 -19 0 -34 7 -14 7 -21 0 -21 -5 0 -10 8 -10
18 -1 16 -1 16 -14 0 -7 -10 -16 -15 -20 -11 -3 3 1 15 11 25 9 10 13 18 8 18
-4 0 -2 7 5 15 10 12 9 15 -5 15 -14 0 -15 3 -5 15 16 19 31 20 24 1z m-1591
-13 c-2 -10 -15 -26 -29 -36 -23 -17 -24 -17 -24 2 0 12 12 26 28 34 15 8 28
15 29 16 0 1 -1 -7 -4 -16z m321 -48 c-3 -11 -12 -25 -20 -31 -18 -15 -18 -24
1 -24 8 0 15 -4 15 -10 0 -16 -19 -12 -41 9 -12 11 -18 24 -14 30 3 6 2 11 -4
11 -5 0 0 18 12 40 l21 41 18 -23 c10 -13 15 -31 12 -43z m1474 53 c-6 -17
-58 -23 -58 -8 0 7 7 10 15 7 8 -4 17 -2 20 3 9 15 27 12 23 -2z m-788 -14 c0
-8 -4 -12 -10 -9 -5 3 -10 10 -10 16 0 5 5 9 10 9 6 0 10 -7 10 -16z m940 6
c0 -5 -4 -10 -10 -10 -5 0 -10 5 -10 10 0 6 5 10 10 10 6 0 10 -4 10 -10z m44
-22 c-3 -4 -11 -2 -18 5 -10 8 -11 14 -3 19 13 8 29 -11 21 -24z m-1874 -3
c-7 -8 -17 -15 -23 -15 -5 0 -2 9 8 20 21 23 35 19 15 -5z m1220 15 c0 -5 -4
-10 -10 -10 -5 0 -10 5 -10 10 0 6 5 10 10 10 6 0 10 -4 10 -10z m-1170 -10
c0 -5 -2 -10 -4 -10 -3 0 -8 5 -11 10 -3 6 -1 10 4 10 6 0 11 -4 11 -10z m290
0 c0 -5 -10 -10 -22 -10 -19 0 -20 2 -8 10 19 13 30 13 30 0z m820 0 c0 -14
-38 -55 -45 -48 -10 10 14 58 30 58 8 0 15 -5 15 -10z m-1447 -29 c14 -29 13
-41 -5 -41 -5 0 -6 5 -2 12 5 7 2 9 -8 5 -11 -4 -18 1 -22 15 -11 45 16 51 37
9z m797 20 c0 -8 -64 -51 -76 -51 -14 0 -1 30 14 30 9 0 26 7 36 15 23 17 26
18 26 6z m1020 -1 c0 -5 -2 -10 -4 -10 -3 0 -8 5 -11 10 -3 6 -1 10 4 10 6 0
11 -4 11 -10z m-1984 -18 c-8 -13 -66 -33 -66 -23 0 8 63 41 69 35 1 -1 0 -7
-3 -12z m1259 8 c-4 -6 5 -10 19 -10 28 0 29 -1 20 -24 -6 -17 -34 -22 -34 -7
0 5 -10 12 -22 15 -23 6 -23 7 -4 21 23 17 30 19 21 5z m-471 -44 c-25 -33
-48 -36 -31 -3 24 44 29 49 39 39 7 -7 4 -19 -8 -36z m387 22 c11 -21 11 -22
-4 -9 -10 7 -17 17 -17 22 0 15 9 10 21 -13z m1109 8 c0 -8 -4 -18 -10 -21 -5
-3 -10 -4 -10 -1 0 2 -3 11 -6 20 -4 11 -1 16 10 16 9 0 16 -6 16 -14z m-2170
-11 c-7 -9 -15 -13 -17 -11 -7 7 7 26 19 26 6 0 6 -6 -2 -15z m860 2 c0 -7 -9
-18 -20 -24 -26 -17 -40 5 -15 24 23 16 35 17 35 0z m540 -13 c0 -8 -4 -12
-10 -9 -5 3 -10 13 -10 21 0 8 5 12 10 9 6 -3 10 -13 10 -21z m317 0 c-9 -9
-28 6 -21 18 4 6 10 6 17 -1 6 -6 8 -13 4 -17z m-1523 7 c3 -5 -3 -11 -14 -14
-20 -5 -26 3 -13 16 9 10 21 9 27 -2z m131 -27 c-23 -17 -34 -2 -14 22 9 11
15 12 23 4 8 -8 6 -15 -9 -26z m37 14 c-7 -7 -12 -8 -12 -2 0 14 12 26 19 19
2 -3 -1 -11 -7 -17z m916 2 c-13 -21 -28 -27 -28 -10 0 5 8 14 18 19 23 14 24
14 10 -9z m232 13 c0 -6 -60 -63 -67 -63 -7 0 8 23 30 48 20 21 37 29 37 15z
m500 -12 c14 -27 13 -28 -15 -28 -19 0 -23 3 -15 12 8 9 5 14 -12 18 -15 4
-26 0 -35 -13 -16 -23 -33 -26 -33 -7 0 33 93 48 110 18z m-2113 1 c6 -4 14
-19 18 -33 5 -21 2 -27 -19 -37 -20 -9 -25 -9 -23 1 1 7 -7 11 -20 10 -31 -4
-29 15 2 23 19 5 24 11 20 25 -7 20 2 24 22 11z m1773 -13 c0 -5 -6 -8 -12 -6
-7 1 -12 -5 -10 -14 1 -9 -4 -19 -13 -23 -8 -3 -14 -2 -13 2 1 4 -2 15 -7 26
-5 11 -3 21 5 26 15 9 50 1 50 -11z m-940 -10 c0 -5 -9 -9 -20 -9 -13 0 -18 5
-14 14 6 15 34 11 34 -5z m284 4 c7 -18 -9 -33 -36 -33 -12 0 -18 8 -18 21 0
15 5 19 15 15 8 -3 15 -1 15 4 0 16 17 11 24 -7z m-757 -8 c8 -23 0 -25 -21
-4 -18 17 -18 19 -2 19 9 0 19 -7 23 -15z m1073 11 c0 -2 -9 -6 -20 -9 -11 -3
-20 -1 -20 4 0 5 9 9 20 9 11 0 20 -2 20 -4z m-1610 -12 c0 -3 -7 -12 -15 -21
-20 -19 -32 -9 -15 12 12 15 30 20 30 9z m1180 -21 c0 -26 -1 -26 -15 -7 -19
25 -19 34 0 34 10 0 15 -10 15 -27z m495 17 c-3 -5 -11 -10 -16 -10 -6 0 -7 5
-4 10 3 6 11 10 16 10 6 0 7 -4 4 -10z m-1635 -10 c0 -5 -4 -10 -10 -10 -5 0
-10 5 -10 10 0 6 5 10 10 10 6 0 10 -4 10 -10z m460 -11 c0 -6 -6 -17 -14 -24
-12 -12 -15 -11 -20 8 -3 11 0 25 6 28 14 9 28 2 28 -12z m120 -4 c-7 -9 -15
-13 -18 -10 -3 2 1 11 8 20 7 9 15 13 18 10 3 -2 -1 -11 -8 -20z m1010 16 c0
-5 -7 -11 -15 -15 -8 -3 -15 -12 -15 -21 0 -8 -4 -15 -10 -15 -14 0 -12 12 6
38 15 22 34 29 34 13z m-675 -11 c3 -5 1 -10 -4 -10 -6 0 -11 5 -11 10 0 6 2
10 4 10 3 0 8 -4 11 -10z m181 -47 c-11 -20 -15 -23 -16 -10 0 21 -20 23 -20
2 0 -8 -5 -15 -11 -15 -5 0 -7 5 -3 11 5 9 -1 10 -20 5 -18 -4 -25 -3 -21 4 3
5 14 10 23 10 9 0 28 12 41 26 21 22 26 23 33 10 6 -10 3 -26 -6 -43z m314 47
c0 -5 -4 -10 -10 -10 -5 0 -10 5 -10 10 0 6 5 10 10 10 6 0 10 -4 10 -10z
m390 0 c0 -5 -7 -10 -15 -10 -8 0 -15 5 -15 10 0 6 7 10 15 10 8 0 15 -4 15
-10z m591 -24 c-11 -12 -32 -23 -47 -24 -26 -2 -25 -1 12 27 44 32 66 30 35
-3z m-2104 2 c-3 -8 -6 -5 -6 6 -1 11 2 17 5 13 3 -3 4 -12 1 -19z m443 11 c0
-8 6 -7 18 2 16 12 16 12 0 -5 -17 -19 -55 -15 -43 4 8 13 25 13 25 -1z m705
-26 c-5 -10 -7 -21 -7 -25 2 -9 -12 -11 -21 -2 -3 3 -1 19 5 36 7 20 14 26 21
19 5 -5 6 -18 2 -28z m490 27 c3 -5 2 -10 -4 -10 -5 0 -13 5 -16 10 -3 6 -2
10 4 10 5 0 13 -4 16 -10z m105 0 c0 -5 -4 -10 -10 -10 -5 0 -10 5 -10 10 0 6
5 10 10 10 6 0 10 -4 10 -10z m-1630 -15 c-7 -9 -15 -13 -17 -11 -7 7 7 26 19
26 6 0 6 -6 -2 -15z m1355 5 c8 -12 -20 -60 -35 -60 -5 0 -12 9 -15 20 -4 11
-11 17 -17 14 -6 -4 -9 -1 -6 7 3 8 12 13 21 11 8 -1 18 2 22 8 8 13 22 13 30
0z m-426 -43 c1 -5 -6 -1 -15 7 -8 9 -12 21 -8 28 5 8 10 6 15 -8 4 -10 8 -23
8 -27z m731 31 c0 -24 -15 -37 -30 -28 -11 7 -11 11 -1 24 16 19 31 21 31 4z
m150 2 c-13 -8 -13 -10 2 -10 12 0 15 -5 11 -15 -5 -14 -8 -14 -23 2 -17 18
-10 33 15 33 6 0 3 -5 -5 -10z m-1940 -10 c13 -8 12 -13 -8 -32 -19 -19 -24
-20 -31 -9 -6 9 -5 21 2 33 13 21 16 21 37 8z m1880 6 c0 -3 -4 -8 -10 -11 -5
-3 -10 -1 -10 4 0 6 5 11 10 11 6 0 10 -2 10 -4z m290 0 c0 -2 -7 -6 -15 -10
-8 -3 -15 -1 -15 4 0 6 7 10 15 10 8 0 15 -2 15 -4z m-2444 -20 c17 -17 19
-30 2 -20 -6 4 -16 0 -22 -8 -6 -8 -20 -18 -31 -22 -11 -4 -16 -4 -12 0 4 4 2
13 -4 20 -8 9 -3 16 18 28 35 19 32 19 49 2z m597 -4 c9 -4 -21 -42 -33 -42
-4 0 -7 13 -6 29 1 27 9 30 39 13z m207 8 c0 -5 -2 -10 -4 -10 -3 0 -8 5 -11
10 -3 6 -1 10 4 10 6 0 11 -4 11 -10z m65 0 c-3 -5 -11 -10 -16 -10 -6 0 -7 5
-4 10 3 6 11 10 16 10 6 0 7 -4 4 -10z m722 -16 c2 -10 0 -14 -3 -7 -4 8 -16
5 -42 -9 l-37 -22 30 32 c31 35 49 37 52 6z m323 17 c0 -4 -11 -24 -24 -43
-13 -19 -26 -41 -29 -49 -3 -8 -6 -5 -6 9 -1 21 12 51 34 79 12 14 25 17 25 4z
m-1160 -10 c0 -5 -6 -14 -14 -20 -11 -9 -16 -9 -21 0 -4 6 -1 15 6 20 18 11
29 11 29 0z m140 -1 c0 -5 -5 -10 -11 -10 -5 0 -7 5 -4 10 3 6 8 10 11 10 2 0
4 -4 4 -10z m370 0 c0 -5 -7 -10 -15 -10 -8 0 -15 5 -15 10 0 6 7 10 15 10 8
0 15 -4 15 -10z m130 6 c0 -3 -4 -8 -10 -11 -5 -3 -10 -1 -10 4 0 6 5 11 10
11 6 0 10 -2 10 -4z m-900 -34 c0 -15 -2 -15 -10 -2 -13 20 -13 33 0 25 6 -3
10 -14 10 -23z m1790 12 c0 -8 -4 -12 -10 -9 -5 3 -10 10 -10 16 0 5 5 9 10 9
6 0 10 -7 10 -16z m-2181 -21 c-13 -16 -25 -30 -26 -32 -2 -2 -6 -1 -10 2 -8
8 36 57 50 57 6 0 0 -12 -14 -27z m851 17 c0 -5 -7 -10 -16 -10 -8 0 -12 5 -9
10 3 6 10 10 16 10 5 0 9 -4 9 -10z m240 -15 c-19 -14 -36 -25 -39 -25 -11 1
50 50 62 50 6 0 -4 -11 -23 -25z m99 11 c9 -11 7 -15 -11 -19 -25 -7 -44 13
-25 25 17 11 23 10 36 -6z m-1139 -22 c0 -8 -7 -14 -15 -14 -15 0 -21 21 -9
33 10 9 24 -2 24 -19z m755 -2 c-2 -33 -12 -52 -27 -52 -6 0 -3 9 6 19 13 14
14 20 5 23 -7 2 -10 11 -6 21 10 27 24 20 22 -11z m1011 -12 c-8 -20 -15 -27
-18 -19 -4 12 23 61 30 55 1 -2 -4 -18 -12 -36z m311 25 c8 -9 13 -19 10 -22
-6 -5 -37 21 -37 31 0 10 11 6 27 -9z m-1971 -21 c-11 -7 -22 -12 -25 -9 -2 3
4 12 15 19 10 8 21 12 24 9 3 -2 -4 -11 -14 -19z m118 11 c-4 -8 -11 -15 -16
-15 -6 0 -5 6 2 15 7 8 14 15 16 15 2 0 1 -7 -2 -15z m56 -10 c-16 -19 -30
-19 -30 -1 0 8 8 16 18 18 24 6 27 1 12 -17z m790 10 c-7 -8 -17 -15 -22 -15
-6 0 -5 7 2 15 7 8 17 15 22 15 6 0 5 -7 -2 -15z m215 5 c3 -5 1 -10 -4 -10
-6 0 -11 5 -11 10 0 6 2 10 4 10 3 0 8 -4 11 -10z m35 -11 c0 -6 -4 -7 -10 -4
-5 3 -10 11 -10 16 0 6 5 7 10 4 6 -3 10 -11 10 -16z m950 14 c0 -5 -9 -19
-20 -33 -11 -14 -19 -18 -18 -10 2 10 -4 14 -17 11 -20 -3 -20 -3 -1 18 18 20
56 29 56 14z m50 -8 c0 -12 -19 -12 -23 0 -4 9 -1 12 9 8 7 -3 14 -7 14 -8z
m-2455 -5 c3 -5 -1 -10 -11 -10 -12 0 -15 -6 -11 -21 5 -18 -11 -49 -25 -49
-3 0 -3 17 -1 37 3 43 32 69 48 43z m565 -15 c-13 -16 -40 -21 -40 -7 0 10 42
32 49 26 2 -2 -2 -10 -9 -19z m188 13 c16 -16 15 -31 -2 -25 -8 3 -17 3 -20
-1 -4 -3 -16 -7 -28 -9 -22 -3 -22 -3 2 22 27 28 31 30 48 13z m1032 -16 c0
-15 -2 -15 -10 -2 -13 20 -13 33 0 25 6 -3 10 -14 10 -23z m-83 -2 c-27 -22
-37 -25 -37 -12 0 5 10 14 23 20 35 17 42 14 14 -8z m453 5 c-7 -8 -19 -15
-26 -15 -8 0 -14 7 -14 15 0 10 10 15 26 15 22 0 25 -2 14 -15z m-1215 -5 c3
-5 2 -10 -4 -10 -5 0 -13 5 -16 10 -3 6 -2 10 4 10 5 0 13 -4 16 -10z m459
-23 c7 -6 5 -7 -6 -4 -9 4 -19 -1 -22 -10 -4 -9 -9 -14 -12 -11 -2 3 1 18 7
34 8 20 13 25 17 14 3 -8 10 -19 16 -23z m106 29 c0 -3 -4 -8 -10 -11 -5 -3
-10 -1 -10 4 0 6 5 11 10 11 6 0 10 -2 10 -4z m520 -5 c0 -12 -20 -25 -27 -18
-7 7 6 27 18 27 5 0 9 -4 9 -9z m47 -6 c2 -6 -6 -11 -17 -12 -12 -1 -20 4 -20
13 0 17 31 16 37 -1z m-1812 -15 c-3 -4 2 -10 10 -14 8 -3 15 -11 15 -17 0 -8
-4 -8 -15 1 -13 11 -20 9 -39 -9 -20 -19 -23 -19 -23 -4 0 22 36 65 49 57 4
-3 6 -9 3 -14z m818 -29 c10 -11 8 -13 -11 -7 -13 5 -22 3 -22 -3 0 -6 -7 -11
-16 -11 -10 0 -14 6 -10 15 4 10 -1 15 -16 15 -17 0 -18 3 -8 14 17 21 64 25
69 6 2 -8 8 -21 14 -29z m-663 24 c0 -17 -27 -32 -37 -21 -4 3 2 13 13 21 24
18 24 18 24 0z m776 0 c-3 -9 0 -15 10 -15 33 0 5 -25 -28 -26 -36 -1 -36 -1
-17 19 10 12 19 24 19 29 0 4 5 8 11 8 6 0 9 -7 5 -15z m158 1 c-6 -16 -34
-30 -34 -18 0 10 22 32 32 32 4 0 5 -6 2 -14z m106 -2 c0 -8 -4 -12 -10 -9 -5
3 -10 10 -10 16 0 5 5 9 10 9 6 0 10 -7 10 -16z m265 6 c-3 -5 -11 -10 -16
-10 -6 0 -7 5 -4 10 3 6 11 10 16 10 6 0 7 -4 4 -10z m-1123 -36 c-4 -34 -22
-56 -29 -36 -4 10 -8 10 -19 1 -8 -7 -17 -9 -20 -6 -3 3 8 13 25 23 35 21 36
41 1 36 -14 -2 -20 0 -15 7 3 7 19 10 33 8 23 -4 27 -8 24 -33z m974 1 c-3 -9
-15 -19 -26 -22 -11 -3 -20 -9 -20 -14 0 -5 -8 -9 -17 -9 -15 1 -15 3 5 19 23
20 31 38 10 25 -7 -4 -8 -3 -4 4 4 7 14 12 22 12 8 0 14 5 14 12 0 9 3 9 11 1
7 -7 9 -19 5 -28z m-1496 10 c-16 -19 -5 -35 24 -35 28 0 53 -25 36 -35 -6 -4
-18 -1 -27 7 -12 9 -15 9 -9 1 5 -9 -1 -12 -19 -11 -22 2 -25 6 -20 25 3 12 0
25 -5 28 -12 8 6 35 22 35 6 0 5 -6 -2 -15z m400 -5 c0 -5 -5 -10 -11 -10 -5
0 -7 5 -4 10 3 6 8 10 11 10 2 0 4 -4 4 -10z m450 -9 c0 -11 -4 -23 -10 -26
-6 -4 -10 5 -10 19 0 14 5 26 10 26 6 0 10 -9 10 -19z m976 2 c18 -24 17 -43
-1 -43 -8 0 -15 7 -15 15 0 8 -7 15 -15 15 -18 0 -20 16 -2 23 19 8 19 8 33
-10z m319 7 c-3 -5 -11 -10 -16 -10 -6 0 -7 5 -4 10 3 6 11 10 16 10 6 0 7 -4
4 -10z m-1335 -21 c0 -5 -7 -9 -15 -9 -9 0 -12 6 -9 15 6 15 24 11 24 -6z
m820 -4 c-7 -8 -17 -12 -22 -9 -5 3 -1 12 9 19 22 17 30 11 13 -10z m480 15
c0 -5 -5 -10 -11 -10 -5 0 -7 5 -4 10 3 6 8 10 11 10 2 0 4 -4 4 -10z m-1739
-30 c6 0 7 -5 3 -11 -4 -8 -9 -8 -13 -1 -4 7 -15 4 -31 -9 -20 -15 -22 -21
-11 -28 8 -5 11 -16 7 -26 -5 -14 -8 -14 -20 -3 -16 17 -9 78 9 78 7 0 19 7
26 17 13 15 14 15 17 0 2 -10 8 -17 13 -17z m919 15 c-7 -8 -17 -15 -23 -15
-6 0 -2 7 9 15 25 19 30 19 14 0z m140 3 c0 -4 -12 -8 -26 -8 -14 0 -23 4 -19
9 6 11 45 10 45 -1z m-771 -7 c10 -6 5 -12 -18 -24 -17 -8 -31 -11 -31 -6 0 5
5 9 10 9 6 0 10 7 10 15 0 17 9 19 29 6z m695 3 c17 -7 22 -34 6 -34 -5 0 -14
9 -20 20 -12 22 -10 23 14 14z m794 -21 c-15 -15 -31 -24 -34 -20 -10 10 26
47 45 47 11 0 8 -7 -11 -27z m105 2 c-19 -25 -43 -33 -43 -14 0 6 9 13 20 16
11 3 20 9 20 14 0 5 5 9 10 9 6 0 3 -11 -7 -25z m57 15 c0 -5 -7 -10 -16 -10
-8 0 -12 5 -9 10 3 6 10 10 16 10 5 0 9 -4 9 -10z m-1550 -10 c0 -5 -5 -10
-11 -10 -5 0 -7 5 -4 10 3 6 8 10 11 10 2 0 4 -4 4 -10z m217 -37 c-22 -22
-29 -25 -39 -14 -11 10 -7 17 17 36 41 33 59 15 22 -22z m-807 33 c0 -3 -4 -8
-10 -11 -5 -3 -10 -1 -10 4 0 6 5 11 10 11 6 0 10 -2 10 -4z m978 -9 l27 4
-22 -19 c-21 -19 -63 -20 -63 -3 0 12 25 32 28 23 1 -5 15 -7 30 -5z m186 -2
c17 -18 12 -41 -11 -49 -23 -9 -26 -1 -12 25 12 23 12 23 -15 6 -22 -15 -26
-15 -26 -3 0 14 25 35 42 36 4 0 13 -7 22 -15z m444 -5 c-13 -20 -28 -27 -28
-12 0 10 22 32 32 32 5 0 3 -9 -4 -20z m210 0 c19 -31 19 -33 -9 -34 -29 -2
-67 28 -50 39 6 3 11 1 11 -4 0 -6 5 -11 10 -11 6 0 10 7 10 15 0 21 13 19 28
-5z m351 -21 c-12 -23 -31 -26 -23 -4 5 11 2 13 -10 9 -9 -3 -16 -1 -16 5 0 6
7 11 15 11 8 0 15 5 15 11 0 8 4 8 15 -1 11 -9 12 -17 4 -31z m-859 21 c0 -5
-8 -10 -17 -10 -15 0 -16 2 -3 10 19 12 20 12 20 0z m40 0 c0 -5 -4 -10 -10
-10 -5 0 -10 5 -10 10 0 6 5 10 10 10 6 0 10 -4 10 -10z m-1380 -9 c0 -12 -20
-25 -27 -18 -7 7 6 27 18 27 5 0 9 -4 9 -9z m66 -21 c2 -36 -13 -70 -31 -70
-11 0 -10 5 7 22 14 14 18 23 10 26 -7 2 -12 10 -12 18 0 8 -5 14 -11 14 -5 0
-7 5 -4 11 12 19 40 5 41 -21z m464 20 c-8 -5 -22 -9 -30 -9 -10 0 -8 3 5 9
27 12 43 12 25 0z m-750 -31 c0 -5 -7 -6 -15 -3 -8 4 -15 13 -15 21 0 13 3 13
15 3 8 -7 15 -16 15 -21z m1738 15 c8 -8 8 -15 2 -19 -6 -3 -10 -2 -10 4 0 7
-8 7 -25 1 -17 -6 -25 -6 -25 1 0 6 -6 7 -12 4 -7 -4 -5 0 5 9 22 17 49 17 65
0z m-1128 -38 c-6 -6 -26 -11 -45 -12 -30 -1 -33 1 -24 18 5 10 16 18 24 18 8
0 15 5 15 12 0 6 9 3 20 -7 14 -13 17 -22 10 -29z m340 19 c0 -8 -4 -17 -10
-20 -6 -4 -10 5 -10 20 0 15 4 24 10 20 6 -3 10 -12 10 -20z m663 11 c4 -10 1
-13 -9 -9 -15 6 -19 23 -5 23 5 0 11 -7 14 -14z m-546 -19 c-6 -17 -47 -30
-47 -15 0 5 9 12 20 15 11 3 20 10 20 16 0 6 3 8 6 4 4 -3 4 -12 1 -20z m200
8 c18 -19 12 -27 -21 -31 -18 -2 -23 2 -21 19 1 12 3 23 4 25 4 7 24 0 38 -13z
m300 7 c17 -11 20 -44 4 -50 -8 -3 -11 0 -7 7 4 6 2 11 -4 11 -7 0 -14 -9 -17
-20 -3 -11 -10 -17 -15 -14 -6 4 -14 0 -19 -7 -6 -9 -9 -10 -9 -2 0 6 5 15 10
18 6 4 8 11 5 16 -4 5 6 14 20 21 18 8 22 14 13 20 -7 4 -8 8 -3 8 6 0 15 -4
22 -8z m662 -16 c-7 -15 -17 -22 -26 -19 -11 5 -11 9 3 24 24 26 36 24 23 -5z
m-2088 1 c-1 -12 -15 -9 -19 4 -3 6 1 10 8 8 6 -3 11 -8 11 -12z m1776 -1 c-5
-16 -24 -18 -30 -4 -3 9 3 14 14 14 11 0 18 -5 16 -10z m-1462 -7 c11 -17 -1
-21 -15 -4 -8 9 -8 15 -2 15 6 0 14 -5 17 -11z m331 -10 c14 -16 16 -24 7 -37
-6 -9 -18 -16 -28 -14 -9 2 -23 -3 -32 -10 -11 -9 -9 -1 5 26 12 22 19 43 16
48 -11 17 13 7 32 -13z m64 17 c0 -3 -4 -8 -10 -11 -5 -3 -10 -1 -10 4 0 6 5
11 10 11 6 0 10 -2 10 -4z m40 0 c0 -3 -4 -8 -10 -11 -5 -3 -10 -1 -10 4 0 6
5 11 10 11 6 0 10 -2 10 -4z m310 -6 c0 -5 -5 -10 -11 -10 -5 0 -7 5 -4 10 3
6 8 10 11 10 2 0 4 -4 4 -10z m680 -11 c0 -5 -4 -9 -8 -9 -5 0 -9 7 -9 15 0 8
4 12 9 9 4 -3 8 -9 8 -15z m-1647 -14 c-19 -25 -33 -32 -33 -16 0 13 29 41 41
41 6 0 2 -11 -8 -25z m482 15 c-3 -5 -12 -10 -18 -10 -7 0 -6 4 3 10 19 12 23
12 15 0z m1011 -15 c9 -18 9 -27 0 -33 -14 -12 -46 -12 -46 0 0 4 9 8 20 8 11
0 20 4 20 8 0 17 -13 21 -31 11 -24 -12 -25 -1 -1 17 23 18 25 17 38 -11z
m-1297 -11 c-16 -19 -69 -44 -69 -33 0 16 53 57 67 52 10 -4 11 -9 2 -19z
m1591 22 c0 -2 -8 -10 -17 -17 -16 -13 -17 -12 -4 4 13 16 21 21 21 13z m160
0 c0 -3 -4 -8 -10 -11 -5 -3 -10 -1 -10 4 0 6 5 11 10 11 6 0 10 -2 10 -4z
m-2087 -41 c-2 -8 -10 -13 -16 -12 -7 1 -11 -4 -9 -10 1 -7 -3 -13 -8 -13 -14
0 -13 26 2 50 14 22 41 9 31 -15z m90 20 c-3 -9 -8 -14 -10 -11 -3 3 -2 9 2
15 9 16 15 13 8 -4z m946 -22 c-1 -22 -3 -30 -6 -18 -3 11 -9 25 -14 31 -5 6
-6 14 -2 17 15 16 23 5 22 -30z m347 22 c17 -16 14 -18 -10 -9 -9 3 -16 10
-16 15 0 13 9 11 26 -6z m429 -9 c-17 -25 -45 -42 -45 -26 0 8 47 50 57 50 2
0 -4 -11 -12 -24z m237 -8 c-7 -7 -12 -8 -12 -2 0 14 12 26 19 19 2 -3 -1 -11
-7 -17z m79 -1 c-13 -13 -26 -3 -16 12 3 6 11 8 17 5 6 -4 6 -10 -1 -17z
m-1506 3 c-3 -5 -11 -10 -16 -10 -6 0 -7 5 -4 10 3 6 11 10 16 10 6 0 7 -4 4
-10z m352 -8 c1 -14 -6 -19 -29 -19 l-30 0 23 18 c30 23 34 23 36 1z m990 3
c3 -9 3 -19 -1 -22 -8 -9 -37 18 -30 28 8 14 24 11 31 -6z m313 -4 c0 -14 -18
-23 -31 -15 -8 4 -7 9 2 15 18 11 29 11 29 0z m-1947 -32 c-17 -17 -37 -1 -22
17 8 10 15 12 23 4 7 -7 7 -13 -1 -21z m969 14 c-5 -9 -22 -17 -37 -18 l-27
-1 22 18 c29 24 55 24 42 1z m78 2 c-7 -9 -15 -13 -17 -11 -7 7 7 26 19 26 6
0 6 -6 -2 -15z m270 0 c-7 -8 -17 -15 -22 -15 -6 0 -5 7 2 15 7 8 17 15 22 15
6 0 5 -7 -2 -15z m-1473 -16 c-4 -15 -2 -19 9 -15 11 4 14 1 12 -11 -2 -9 -13
-17 -25 -18 -12 -1 -20 2 -17 6 2 4 -6 9 -18 11 l-23 3 25 23 c30 28 44 28 37
1z m305 -6 c-6 -3 -10 -8 -7 -13 3 -4 -4 -6 -15 -3 -20 5 -20 6 -4 25 13 14
20 16 28 7 8 -8 7 -13 -2 -16z m68 11 c0 -14 -3 -14 -15 -4 -8 7 -15 14 -15
16 0 2 7 4 15 4 8 0 15 -7 15 -16z m258 -16 c2 -20 -3 -29 -27 -41 -38 -19
-40 -10 -3 21 18 15 23 25 15 28 -17 7 -17 27 0 22 6 -3 13 -16 15 -30z m634
10 c-7 -7 -12 -8 -12 -2 0 14 12 26 19 19 2 -3 -1 -11 -7 -17z m438 12 c0 -5
-4 -10 -9 -10 -6 0 -13 5 -16 10 -3 6 1 10 9 10 9 0 16 -4 16 -10z m-1998 -17
c24 -22 23 -36 -2 -23 -16 8 -20 8 -20 -4 0 -7 -9 -24 -21 -37 l-20 -24 11 24
c10 18 9 25 -1 32 -11 6 -9 12 6 28 25 25 24 25 47 4z m1322 1 c4 -10 1 -14
-6 -12 -15 5 -23 28 -10 28 5 0 13 -7 16 -16z m346 1 c0 -8 -2 -15 -4 -15 -2
0 -6 7 -10 15 -3 8 -1 15 4 15 6 0 10 -7 10 -15z m640 0 c0 -8 -4 -15 -9 -15
-13 0 -22 16 -14 24 11 11 23 6 23 -9z m107 -10 c-4 -8 -14 -15 -23 -15 -16 0
-16 2 1 20 20 22 31 20 22 -5z m-643 0 c-6 -15 -42 -31 -51 -22 -3 4 18 18 54
36 1 1 0 -6 -3 -14z m456 -10 c-12 -13 -27 -22 -33 -18 -5 3 1 14 14 24 35 27
46 23 19 -6z m-1470 7 c0 -5 -9 -17 -20 -27 -23 -21 -26 -14 -8 15 13 20 28
27 28 12z m91 -5 c-1 -12 -15 -9 -19 4 -3 6 1 10 8 8 6 -3 11 -8 11 -12z m239
-2 c0 -8 -2 -15 -4 -15 -2 0 -12 -3 -21 -6 -15 -6 -15 -4 -4 15 16 25 29 27
29 6z m615 -5 c-10 -11 -25 -20 -34 -20 -10 0 -4 8 14 19 39 25 42 25 20 1z
m-285 1 c0 -5 -14 -20 -31 -32 -29 -20 -31 -20 -27 -3 2 10 14 24 28 31 30 15
30 15 30 4z m178 -4 c9 4 4 -5 -13 -19 -16 -15 -31 -25 -32 -24 -2 1 3 14 10
29 6 14 13 22 15 17 2 -5 11 -6 20 -3z m462 -12 c-7 -8 -17 -12 -22 -9 -5 3
-1 12 9 19 22 17 30 11 13 -10z m210 4 c0 -12 -38 -54 -44 -48 -9 8 24 70 34
64 5 -3 10 -11 10 -16z m-1765 0 c10 -14 1 -21 -19 -13 -9 3 -13 10 -10 15 7
12 21 11 29 -2z m175 2 c0 -5 -7 -11 -15 -15 -9 -3 -15 0 -15 9 0 8 7 15 15
15 8 0 15 -4 15 -9z m602 -6 c0 -5 -5 -11 -11 -13 -6 -2 -11 4 -11 13 0 9 5
15 11 13 6 -2 11 -8 11 -13z m-692 -5 c0 -5 -5 -10 -11 -10 -5 0 -7 5 -4 10 3
6 8 10 11 10 2 0 4 -4 4 -10z m1920 -10 c0 -5 -5 -10 -11 -10 -5 0 -7 5 -4 10
3 6 8 10 11 10 2 0 4 -4 4 -10z m-1040 -20 c0 -5 -4 -10 -10 -10 -5 0 -10 5
-10 10 0 6 5 10 10 10 6 0 10 -4 10 -10z"/>
<path d="M880 1180 c0 -5 5 -10 10 -10 6 0 10 5 10 10 0 6 -4 10 -10 10 -5 0
-10 -4 -10 -10z"/>
<path d="M1180 949 c0 -5 5 -7 10 -4 6 3 10 8 10 11 0 2 -4 4 -10 4 -5 0 -10
-5 -10 -11z"/>
<path d="M550 839 c0 -5 5 -7 10 -4 6 3 10 8 10 11 0 2 -4 4 -10 4 -5 0 -10
-5 -10 -11z"/>
<path d="M1160 719 c0 -5 5 -7 10 -4 6 3 10 8 10 11 0 2 -4 4 -10 4 -5 0 -10
-5 -10 -11z"/>
</g>
</svg>
